<?xml version="1.0" encoding="UTF-8" standalone="no"?>
<!DOCTYPE svg PUBLIC "-//W3C//DTD SVG 1.1//EN"
 "http://www.w3.org/Graphics/SVG/1.1/DTD/svg11.dtd">
<!-- Generated by graphviz version 2.43.0 (0)
 -->
<!-- Title: eviir::Value Pages: 1 -->
<svg width="236pt" height="256pt"
 viewBox="0.00 0.00 236.00 256.00" xmlns="http://www.w3.org/2000/svg" xmlns:xlink="http://www.w3.org/1999/xlink">
<g id="graph0" class="graph" transform="scale(1 1) rotate(0) translate(4 252)">
<title>eviir::Value</title>
<!-- Node1 -->
<g id="node1" class="node">
<title>Node1</title>
<g id="a_node1"><a xlink:title=" ">
<polygon fill="#bfbfbf" stroke="black" points="0,-114.5 0,-133.5 71,-133.5 71,-114.5 0,-114.5"/>
<text text-anchor="middle" x="35.5" y="-121.5" font-family="Helvetica,sans-Serif" font-size="10.00">eviir::Value</text>
</a>
</g>
</g>
<!-- Node2 -->
<g id="node2" class="node">
<title>Node2</title>
<g id="a_node2"><a xlink:href="classeviir_1_1FloatValue.html" target="_top" xlink:title=" ">
<polygon fill="none" stroke="#bfbfbf" points="119.5,-228.5 119.5,-247.5 215.5,-247.5 215.5,-228.5 119.5,-228.5"/>
<text text-anchor="middle" x="167.5" y="-235.5" font-family="Helvetica,sans-Serif" font-size="10.00">eviir::FloatValue</text>
</a>
</g>
</g>
<!-- Node1&#45;&gt;Node2 -->
<g id="edge1" class="edge">
<title>Node1&#45;&gt;Node2</title>
<path fill="none" stroke="midnightblue" d="M45.74,-142.71C57.25,-164.15 78.88,-198.89 107,-219 112.38,-222.85 118.58,-225.94 124.89,-228.42"/>
<polygon fill="midnightblue" stroke="midnightblue" points="48.76,-140.92 41.05,-133.64 42.54,-144.13 48.76,-140.92"/>
</g>
<!-- Node3 -->
<g id="node3" class="node">
<title>Node3</title>
<g id="a_node3"><a xlink:href="classeviir_1_1IntegerValue.html" target="_top" xlink:title=" ">
<polygon fill="none" stroke="#bfbfbf" points="114.5,-190.5 114.5,-209.5 220.5,-209.5 220.5,-190.5 114.5,-190.5"/>
<text text-anchor="middle" x="167.5" y="-197.5" font-family="Helvetica,sans-Serif" font-size="10.00">eviir::IntegerValue</text>
</a>
</g>
</g>
<!-- Node1&#45;&gt;Node3 -->
<g id="edge2" class="edge">
<title>Node1&#45;&gt;Node3</title>
<path fill="none" stroke="midnightblue" d="M53.69,-140.98C67.21,-153.53 87.04,-170.24 107,-181 113.87,-184.71 121.59,-187.83 129.12,-190.41"/>
<polygon fill="midnightblue" stroke="midnightblue" points="55.8,-138.16 46.15,-133.8 50.98,-143.23 55.8,-138.16"/>
</g>
<!-- Node4 -->
<g id="node4" class="node">
<title>Node4</title>
<g id="a_node4"><a xlink:href="classeviir_1_1ListValue.html" target="_top" xlink:title=" ">
<polygon fill="none" stroke="#bfbfbf" points="123,-152.5 123,-171.5 212,-171.5 212,-152.5 123,-152.5"/>
<text text-anchor="middle" x="167.5" y="-159.5" font-family="Helvetica,sans-Serif" font-size="10.00">eviir::ListValue</text>
</a>
</g>
</g>
<!-- Node1&#45;&gt;Node4 -->
<g id="edge3" class="edge">
<title>Node1&#45;&gt;Node4</title>
<path fill="none" stroke="midnightblue" d="M79.38,-136.54C97.07,-141.7 117.23,-147.6 133.71,-152.41"/>
<polygon fill="midnightblue" stroke="midnightblue" points="79.88,-133.04 69.3,-133.59 77.92,-139.75 79.88,-133.04"/>
</g>
<!-- Node5 -->
<g id="node5" class="node">
<title>Node5</title>
<g id="a_node5"><a xlink:href="classeviir_1_1ObjectValue.html" target="_top" xlink:title=" ">
<polygon fill="none" stroke="#bfbfbf" points="116,-114.5 116,-133.5 219,-133.5 219,-114.5 116,-114.5"/>
<text text-anchor="middle" x="167.5" y="-121.5" font-family="Helvetica,sans-Serif" font-size="10.00">eviir::ObjectValue</text>
</a>
</g>
</g>
<!-- Node1&#45;&gt;Node5 -->
<g id="edge4" class="edge">
<title>Node1&#45;&gt;Node5</title>
<path fill="none" stroke="midnightblue" d="M81.64,-124C92.7,-124 104.62,-124 115.92,-124"/>
<polygon fill="midnightblue" stroke="midnightblue" points="81.34,-120.5 71.34,-124 81.34,-127.5 81.34,-120.5"/>
</g>
<!-- Node6 -->
<g id="node6" class="node">
<title>Node6</title>
<g id="a_node6"><a xlink:href="classeviir_1_1OptionValue.html" target="_top" xlink:title=" ">
<polygon fill="none" stroke="#bfbfbf" points="115.5,-76.5 115.5,-95.5 219.5,-95.5 219.5,-76.5 115.5,-76.5"/>
<text text-anchor="middle" x="167.5" y="-83.5" font-family="Helvetica,sans-Serif" font-size="10.00">eviir::OptionValue</text>
</a>
</g>
</g>
<!-- Node1&#45;&gt;Node6 -->
<g id="edge5" class="edge">
<title>Node1&#45;&gt;Node6</title>
<path fill="none" stroke="midnightblue" d="M79.38,-111.46C97.07,-106.3 117.23,-100.4 133.71,-95.59"/>
<polygon fill="midnightblue" stroke="midnightblue" points="77.92,-108.25 69.3,-114.41 79.88,-114.96 77.92,-108.25"/>
</g>
<!-- Node7 -->
<g id="node7" class="node">
<title>Node7</title>
<g id="a_node7"><a xlink:href="classeviir_1_1ReferenceValue.html" target="_top" xlink:title=" ">
<polygon fill="none" stroke="#bfbfbf" points="107,-38.5 107,-57.5 228,-57.5 228,-38.5 107,-38.5"/>
<text text-anchor="middle" x="167.5" y="-45.5" font-family="Helvetica,sans-Serif" font-size="10.00">eviir::ReferenceValue</text>
</a>
</g>
</g>
<!-- Node1&#45;&gt;Node7 -->
<g id="edge6" class="edge">
<title>Node1&#45;&gt;Node7</title>
<path fill="none" stroke="midnightblue" d="M53.69,-107.02C67.21,-94.47 87.04,-77.76 107,-67 113.87,-63.29 121.59,-60.17 129.12,-57.59"/>
<polygon fill="midnightblue" stroke="midnightblue" points="50.98,-104.77 46.15,-114.2 55.8,-109.84 50.98,-104.77"/>
</g>
<!-- Node8 -->
<g id="node8" class="node">
<title>Node8</title>
<g id="a_node8"><a xlink:href="classeviir_1_1StringValue.html" target="_top" xlink:title=" ">
<polygon fill="none" stroke="#bfbfbf" points="117.5,-0.5 117.5,-19.5 217.5,-19.5 217.5,-0.5 117.5,-0.5"/>
<text text-anchor="middle" x="167.5" y="-7.5" font-family="Helvetica,sans-Serif" font-size="10.00">eviir::StringValue</text>
</a>
</g>
</g>
<!-- Node1&#45;&gt;Node8 -->
<g id="edge7" class="edge">
<title>Node1&#45;&gt;Node8</title>
<path fill="none" stroke="midnightblue" d="M45.74,-105.29C57.25,-83.85 78.88,-49.11 107,-29 112.38,-25.15 118.58,-22.06 124.89,-19.58"/>
<polygon fill="midnightblue" stroke="midnightblue" points="42.54,-103.87 41.05,-114.36 48.76,-107.08 42.54,-103.87"/>
</g>
</g>
</svg>
