<?xml version="1.0" encoding="UTF-8" standalone="no"?>
<!DOCTYPE svg PUBLIC "-//W3C//DTD SVG 1.1//EN"
 "http://www.w3.org/Graphics/SVG/1.1/DTD/svg11.dtd">
<!-- Generated by graphviz version 2.43.0 (0)
 -->
<!-- Title: evir::FloatConst Pages: 1 -->
<svg width="156pt" height="152pt"
 viewBox="0.00 0.00 155.50 152.00" xmlns="http://www.w3.org/2000/svg" xmlns:xlink="http://www.w3.org/1999/xlink">
<g id="graph0" class="graph" transform="scale(1 1) rotate(0) translate(4 148)">
<title>evir::FloatConst</title>
<!-- Node1 -->
<g id="node1" class="node">
<title>Node1</title>
<g id="a_node1"><a xlink:title=" ">
<polygon fill="#bfbfbf" stroke="black" points="36.5,-0.5 36.5,-19.5 130.5,-19.5 130.5,-0.5 36.5,-0.5"/>
<text text-anchor="middle" x="83.5" y="-7.5" font-family="Helvetica,sans-Serif" font-size="10.00">evir::FloatConst</text>
</a>
</g>
</g>
<!-- Node2 -->
<g id="node2" class="node">
<title>Node2</title>
<g id="a_node2"><a xlink:href="classevir_1_1Constant.html" target="_top" xlink:title=" ">
<polygon fill="none" stroke="#bfbfbf" points="0,-67.5 0,-86.5 85,-86.5 85,-67.5 0,-67.5"/>
<text text-anchor="middle" x="42.5" y="-74.5" font-family="Helvetica,sans-Serif" font-size="10.00">evir::Constant</text>
</a>
</g>
</g>
<!-- Node2&#45;&gt;Node1 -->
<g id="edge1" class="edge">
<title>Node2&#45;&gt;Node1</title>
<path fill="none" stroke="midnightblue" d="M53.52,-58.53C61.45,-45.95 71.83,-29.51 78.06,-19.63"/>
<polygon fill="midnightblue" stroke="midnightblue" points="50.4,-56.91 48.03,-67.23 56.32,-60.64 50.4,-56.91"/>
</g>
<!-- Node3 -->
<g id="node3" class="node">
<title>Node3</title>
<g id="a_node3"><a xlink:href="classevir_1_1Value.html" target="_top" xlink:title=" ">
<polygon fill="none" stroke="#bfbfbf" points="8.5,-124.5 8.5,-143.5 76.5,-143.5 76.5,-124.5 8.5,-124.5"/>
<text text-anchor="middle" x="42.5" y="-131.5" font-family="Helvetica,sans-Serif" font-size="10.00">evir::Value</text>
</a>
</g>
</g>
<!-- Node3&#45;&gt;Node2 -->
<g id="edge2" class="edge">
<title>Node3&#45;&gt;Node2</title>
<path fill="none" stroke="midnightblue" d="M42.5,-114.12C42.5,-104.82 42.5,-94.06 42.5,-86.71"/>
<polygon fill="midnightblue" stroke="midnightblue" points="39,-114.41 42.5,-124.41 46,-114.41 39,-114.41"/>
</g>
<!-- Node4 -->
<g id="node4" class="node">
<title>Node4</title>
<g id="a_node4"><a xlink:title=" ">
<polygon fill="none" stroke="#bfbfbf" points="103.5,-67.5 103.5,-86.5 147.5,-86.5 147.5,-67.5 103.5,-67.5"/>
<text text-anchor="middle" x="125.5" y="-74.5" font-family="Helvetica,sans-Serif" font-size="10.00">float2</text>
</a>
</g>
</g>
<!-- Node4&#45;&gt;Node1 -->
<g id="edge3" class="edge">
<title>Node4&#45;&gt;Node1</title>
<path fill="none" stroke="#9a32cd" stroke-dasharray="5,2" d="M114.21,-58.53C106.08,-45.95 95.46,-29.51 89.07,-19.63"/>
<polygon fill="#9a32cd" stroke="#9a32cd" points="111.47,-60.73 119.84,-67.23 117.35,-56.94 111.47,-60.73"/>
<text text-anchor="middle" x="122" y="-41" font-family="Helvetica,sans-Serif" font-size="10.00"> value</text>
</g>
</g>
</svg>
