<?xml version="1.0" encoding="UTF-8" standalone="no"?>
<!DOCTYPE svg PUBLIC "-//W3C//DTD SVG 1.1//EN"
 "http://www.w3.org/Graphics/SVG/1.1/DTD/svg11.dtd">
<!-- Generated by graphviz version 2.43.0 (0)
 -->
<!-- Title: evir::Type Pages: 1 -->
<svg width="453pt" height="84pt"
 viewBox="0.00 0.00 452.50 84.00" xmlns="http://www.w3.org/2000/svg" xmlns:xlink="http://www.w3.org/1999/xlink">
<g id="graph0" class="graph" transform="scale(1 1) rotate(0) translate(4 80)">
<title>evir::Type</title>
<!-- Node1 -->
<g id="node1" class="node">
<title>Node1</title>
<g id="a_node1"><a xlink:title="The interface for types.">
<polygon fill="#bfbfbf" stroke="black" points="187.5,-56.5 187.5,-75.5 251.5,-75.5 251.5,-56.5 187.5,-56.5"/>
<text text-anchor="middle" x="219.5" y="-63.5" font-family="Helvetica,sans-Serif" font-size="10.00">evir::Type</text>
</a>
</g>
</g>
<!-- Node2 -->
<g id="node2" class="node">
<title>Node2</title>
<g id="a_node2"><a xlink:href="classevir_1_1FloatType.html" target="_top" xlink:title="An abritrary&#45;width float type.">
<polygon fill="none" stroke="black" points="0,-0.5 0,-19.5 89,-19.5 89,-0.5 0,-0.5"/>
<text text-anchor="middle" x="44.5" y="-7.5" font-family="Helvetica,sans-Serif" font-size="10.00">evir::FloatType</text>
</a>
</g>
</g>
<!-- Node1&#45;&gt;Node2 -->
<g id="edge1" class="edge">
<title>Node1&#45;&gt;Node2</title>
<path fill="none" stroke="midnightblue" d="M182.03,-53.44C149.03,-43.26 101.74,-28.66 72.1,-19.52"/>
<polygon fill="midnightblue" stroke="midnightblue" points="181.18,-56.84 191.77,-56.44 183.25,-50.15 181.18,-56.84"/>
</g>
<!-- Node3 -->
<g id="node3" class="node">
<title>Node3</title>
<g id="a_node3"><a xlink:href="classevir_1_1FunctionType.html" target="_top" xlink:title="A function&#39;s type.">
<polygon fill="none" stroke="black" points="107,-0.5 107,-19.5 212,-19.5 212,-0.5 107,-0.5"/>
<text text-anchor="middle" x="159.5" y="-7.5" font-family="Helvetica,sans-Serif" font-size="10.00">evir::FunctionType</text>
</a>
</g>
</g>
<!-- Node1&#45;&gt;Node3 -->
<g id="edge2" class="edge">
<title>Node1&#45;&gt;Node3</title>
<path fill="none" stroke="midnightblue" d="M202.32,-49.54C191.62,-39.91 178.24,-27.87 169.32,-19.83"/>
<polygon fill="midnightblue" stroke="midnightblue" points="200.09,-52.24 209.86,-56.32 204.77,-47.03 200.09,-52.24"/>
</g>
<!-- Node4 -->
<g id="node4" class="node">
<title>Node4</title>
<g id="a_node4"><a xlink:href="classevir_1_1IntegerType.html" target="_top" xlink:title="An abritrary&#45;width integer type.">
<polygon fill="none" stroke="black" points="230.5,-0.5 230.5,-19.5 328.5,-19.5 328.5,-0.5 230.5,-0.5"/>
<text text-anchor="middle" x="279.5" y="-7.5" font-family="Helvetica,sans-Serif" font-size="10.00">evir::IntegerType</text>
</a>
</g>
</g>
<!-- Node1&#45;&gt;Node4 -->
<g id="edge3" class="edge">
<title>Node1&#45;&gt;Node4</title>
<path fill="none" stroke="midnightblue" d="M236.68,-49.54C247.38,-39.91 260.76,-27.87 269.68,-19.83"/>
<polygon fill="midnightblue" stroke="midnightblue" points="234.23,-47.03 229.14,-56.32 238.91,-52.24 234.23,-47.03"/>
</g>
<!-- Node5 -->
<g id="node5" class="node">
<title>Node5</title>
<g id="a_node5"><a xlink:href="classevir_1_1PointerType.html" target="_top" xlink:title="A pointer type.">
<polygon fill="none" stroke="black" points="346.5,-0.5 346.5,-19.5 444.5,-19.5 444.5,-0.5 346.5,-0.5"/>
<text text-anchor="middle" x="395.5" y="-7.5" font-family="Helvetica,sans-Serif" font-size="10.00">evir::PointerType</text>
</a>
</g>
</g>
<!-- Node1&#45;&gt;Node5 -->
<g id="edge4" class="edge">
<title>Node1&#45;&gt;Node5</title>
<path fill="none" stroke="midnightblue" d="M257.19,-53.44C290.37,-43.26 337.93,-28.66 367.74,-19.52"/>
<polygon fill="midnightblue" stroke="midnightblue" points="255.92,-50.16 247.39,-56.44 257.97,-56.86 255.92,-50.16"/>
</g>
</g>
</svg>
