<?xml version="1.0" encoding="UTF-8" standalone="no"?>
<!DOCTYPE svg PUBLIC "-//W3C//DTD SVG 1.1//EN"
 "http://www.w3.org/Graphics/SVG/1.1/DTD/svg11.dtd">
<!-- Generated by graphviz version 2.43.0 (0)
 -->
<!-- Title: evir::StringConst Pages: 1 -->
<svg width="242pt" height="209pt"
 viewBox="0.00 0.00 241.50 209.00" xmlns="http://www.w3.org/2000/svg" xmlns:xlink="http://www.w3.org/1999/xlink">
<g id="graph0" class="graph" transform="scale(1 1) rotate(0) translate(4 205)">
<title>evir::StringConst</title>
<!-- Node1 -->
<g id="node1" class="node">
<title>Node1</title>
<g id="a_node1"><a xlink:title=" ">
<polygon fill="#bfbfbf" stroke="black" points="56.5,-0.5 56.5,-19.5 154.5,-19.5 154.5,-0.5 56.5,-0.5"/>
<text text-anchor="middle" x="105.5" y="-7.5" font-family="Helvetica,sans-Serif" font-size="10.00">evir::StringConst</text>
</a>
</g>
</g>
<!-- Node2 -->
<g id="node2" class="node">
<title>Node2</title>
<g id="a_node2"><a xlink:href="classevir_1_1ArrayConst.html" target="_top" xlink:title=" ">
<polygon fill="none" stroke="#bfbfbf" points="58,-57.5 58,-76.5 153,-76.5 153,-57.5 58,-57.5"/>
<text text-anchor="middle" x="105.5" y="-64.5" font-family="Helvetica,sans-Serif" font-size="10.00">evir::ArrayConst</text>
</a>
</g>
</g>
<!-- Node2&#45;&gt;Node1 -->
<g id="edge1" class="edge">
<title>Node2&#45;&gt;Node1</title>
<path fill="none" stroke="midnightblue" d="M105.5,-47.12C105.5,-37.82 105.5,-27.06 105.5,-19.71"/>
<polygon fill="midnightblue" stroke="midnightblue" points="102,-47.41 105.5,-57.41 109,-47.41 102,-47.41"/>
</g>
<!-- Node3 -->
<g id="node3" class="node">
<title>Node3</title>
<g id="a_node3"><a xlink:href="classevir_1_1Constant.html" target="_top" xlink:title=" ">
<polygon fill="none" stroke="#bfbfbf" points="0,-124.5 0,-143.5 85,-143.5 85,-124.5 0,-124.5"/>
<text text-anchor="middle" x="42.5" y="-131.5" font-family="Helvetica,sans-Serif" font-size="10.00">evir::Constant</text>
</a>
</g>
</g>
<!-- Node3&#45;&gt;Node2 -->
<g id="edge2" class="edge">
<title>Node3&#45;&gt;Node2</title>
<path fill="none" stroke="midnightblue" d="M58.01,-117C70.37,-104.25 87.19,-86.89 97.14,-76.63"/>
<polygon fill="midnightblue" stroke="midnightblue" points="55.44,-114.62 51,-124.23 60.47,-119.49 55.44,-114.62"/>
</g>
<!-- Node4 -->
<g id="node4" class="node">
<title>Node4</title>
<g id="a_node4"><a xlink:href="classevir_1_1Value.html" target="_top" xlink:title=" ">
<polygon fill="none" stroke="#bfbfbf" points="8.5,-181.5 8.5,-200.5 76.5,-200.5 76.5,-181.5 8.5,-181.5"/>
<text text-anchor="middle" x="42.5" y="-188.5" font-family="Helvetica,sans-Serif" font-size="10.00">evir::Value</text>
</a>
</g>
</g>
<!-- Node4&#45;&gt;Node3 -->
<g id="edge3" class="edge">
<title>Node4&#45;&gt;Node3</title>
<path fill="none" stroke="midnightblue" d="M42.5,-171.12C42.5,-161.82 42.5,-151.06 42.5,-143.71"/>
<polygon fill="midnightblue" stroke="midnightblue" points="39,-171.41 42.5,-181.41 46,-171.41 39,-171.41"/>
</g>
<!-- Node5 -->
<g id="node5" class="node">
<title>Node5</title>
<g id="a_node5"><a xlink:title=" ">
<polygon fill="none" stroke="#bfbfbf" points="103.5,-124.5 103.5,-143.5 233.5,-143.5 233.5,-124.5 103.5,-124.5"/>
<text text-anchor="middle" x="168.5" y="-131.5" font-family="Helvetica,sans-Serif" font-size="10.00">Vector&lt; evir::Value * &gt;</text>
</a>
</g>
</g>
<!-- Node5&#45;&gt;Node2 -->
<g id="edge4" class="edge">
<title>Node5&#45;&gt;Node2</title>
<path fill="none" stroke="#9a32cd" stroke-dasharray="5,2" d="M152.99,-117C140.63,-104.25 123.81,-86.89 113.86,-76.63"/>
<polygon fill="#9a32cd" stroke="#9a32cd" points="150.53,-119.49 160,-124.23 155.56,-114.62 150.53,-119.49"/>
<text text-anchor="middle" x="165" y="-98" font-family="Helvetica,sans-Serif" font-size="10.00"> elements</text>
</g>
</g>
</svg>
