<?xml version="1.0" encoding="UTF-8" standalone="no"?>
<!DOCTYPE svg PUBLIC "-//W3C//DTD SVG 1.1//EN"
 "http://www.w3.org/Graphics/SVG/1.1/DTD/svg11.dtd">
<!-- Generated by graphviz version 2.43.0 (0)
 -->
<!-- Title: evir::Instruction Pages: 1 -->
<svg width="386pt" height="140pt"
 viewBox="0.00 0.00 385.50 140.00" xmlns="http://www.w3.org/2000/svg" xmlns:xlink="http://www.w3.org/1999/xlink">
<g id="graph0" class="graph" transform="scale(1 1) rotate(0) translate(4 136)">
<title>evir::Instruction</title>
<!-- Node1 -->
<g id="node1" class="node">
<title>Node1</title>
<g id="a_node1"><a xlink:title=" ">
<polygon fill="#bfbfbf" stroke="black" points="189.5,-112.5 189.5,-131.5 282.5,-131.5 282.5,-112.5 189.5,-112.5"/>
<text text-anchor="middle" x="236" y="-119.5" font-family="Helvetica,sans-Serif" font-size="10.00">evir::Instruction</text>
</a>
</g>
</g>
<!-- Node2 -->
<g id="node2" class="node">
<title>Node2</title>
<g id="a_node2"><a xlink:href="classevir_1_1BranchInst.html" target="_top" xlink:title=" ">
<polygon fill="none" stroke="#bfbfbf" points="133.5,-56.5 133.5,-75.5 226.5,-75.5 226.5,-56.5 133.5,-56.5"/>
<text text-anchor="middle" x="180" y="-63.5" font-family="Helvetica,sans-Serif" font-size="10.00">evir::BranchInst</text>
</a>
</g>
</g>
<!-- Node1&#45;&gt;Node2 -->
<g id="edge1" class="edge">
<title>Node1&#45;&gt;Node2</title>
<path fill="none" stroke="midnightblue" d="M219.67,-105.25C209.74,-95.67 197.41,-83.79 189.16,-75.83"/>
<polygon fill="midnightblue" stroke="midnightblue" points="217.37,-107.9 227,-112.32 222.23,-102.86 217.37,-107.9"/>
</g>
<!-- Node6 -->
<g id="node6" class="node">
<title>Node6</title>
<g id="a_node6"><a xlink:href="classevir_1_1StorageInst.html" target="_top" xlink:title=" ">
<polygon fill="none" stroke="#bfbfbf" points="266.5,-56.5 266.5,-75.5 363.5,-75.5 363.5,-56.5 266.5,-56.5"/>
<text text-anchor="middle" x="315" y="-63.5" font-family="Helvetica,sans-Serif" font-size="10.00">evir::StorageInst</text>
</a>
</g>
</g>
<!-- Node1&#45;&gt;Node6 -->
<g id="edge5" class="edge">
<title>Node1&#45;&gt;Node6</title>
<path fill="none" stroke="midnightblue" d="M257.03,-106.62C271.47,-96.76 290.14,-83.99 302.34,-75.65"/>
<polygon fill="midnightblue" stroke="midnightblue" points="254.97,-103.79 248.69,-112.32 258.92,-109.57 254.97,-103.79"/>
</g>
<!-- Node3 -->
<g id="node3" class="node">
<title>Node3</title>
<g id="a_node3"><a xlink:href="classevir_1_1BrInst.html" target="_top" xlink:title=" ">
<polygon fill="none" stroke="#bfbfbf" points="0,-0.5 0,-19.5 70,-19.5 70,-0.5 0,-0.5"/>
<text text-anchor="middle" x="35" y="-7.5" font-family="Helvetica,sans-Serif" font-size="10.00">evir::BrInst</text>
</a>
</g>
</g>
<!-- Node2&#45;&gt;Node3 -->
<g id="edge2" class="edge">
<title>Node2&#45;&gt;Node3</title>
<path fill="none" stroke="midnightblue" d="M147.52,-52.91C120.26,-42.75 82.01,-28.51 57.87,-19.52"/>
<polygon fill="midnightblue" stroke="midnightblue" points="146.43,-56.23 157.02,-56.44 148.87,-49.67 146.43,-56.23"/>
</g>
<!-- Node4 -->
<g id="node4" class="node">
<title>Node4</title>
<g id="a_node4"><a xlink:href="classevir_1_1CondBrInst.html" target="_top" xlink:title=" ">
<polygon fill="none" stroke="#bfbfbf" points="88.5,-0.5 88.5,-19.5 183.5,-19.5 183.5,-0.5 88.5,-0.5"/>
<text text-anchor="middle" x="136" y="-7.5" font-family="Helvetica,sans-Serif" font-size="10.00">evir::CondBrInst</text>
</a>
</g>
</g>
<!-- Node2&#45;&gt;Node4 -->
<g id="edge3" class="edge">
<title>Node2&#45;&gt;Node4</title>
<path fill="none" stroke="midnightblue" d="M166.27,-48.14C158.6,-38.74 149.37,-27.4 143.13,-19.75"/>
<polygon fill="midnightblue" stroke="midnightblue" points="163.7,-50.54 172.73,-56.08 169.13,-46.12 163.7,-50.54"/>
</g>
<!-- Node5 -->
<g id="node5" class="node">
<title>Node5</title>
<g id="a_node5"><a xlink:href="classevir_1_1RetInst.html" target="_top" xlink:title=" ">
<polygon fill="none" stroke="#bfbfbf" points="202,-0.5 202,-19.5 278,-19.5 278,-0.5 202,-0.5"/>
<text text-anchor="middle" x="240" y="-7.5" font-family="Helvetica,sans-Serif" font-size="10.00">evir::RetInst</text>
</a>
</g>
</g>
<!-- Node2&#45;&gt;Node5 -->
<g id="edge4" class="edge">
<title>Node2&#45;&gt;Node5</title>
<path fill="none" stroke="midnightblue" d="M197.18,-49.54C207.88,-39.91 221.26,-27.87 230.18,-19.83"/>
<polygon fill="midnightblue" stroke="midnightblue" points="194.73,-47.03 189.64,-56.32 199.41,-52.24 194.73,-47.03"/>
</g>
<!-- Node7 -->
<g id="node7" class="node">
<title>Node7</title>
<g id="a_node7"><a xlink:href="classevir_1_1DispInst.html" target="_top" xlink:title=" ">
<polygon fill="none" stroke="#bfbfbf" points="296.5,-0.5 296.5,-19.5 377.5,-19.5 377.5,-0.5 296.5,-0.5"/>
<text text-anchor="middle" x="337" y="-7.5" font-family="Helvetica,sans-Serif" font-size="10.00">evir::DispInst</text>
</a>
</g>
</g>
<!-- Node6&#45;&gt;Node7 -->
<g id="edge6" class="edge">
<title>Node6&#45;&gt;Node7</title>
<path fill="none" stroke="midnightblue" d="M322.46,-46.69C326.17,-37.59 330.48,-27.01 333.43,-19.75"/>
<polygon fill="midnightblue" stroke="midnightblue" points="319.16,-45.5 318.63,-56.08 325.65,-48.14 319.16,-45.5"/>
</g>
</g>
</svg>
