<?xml version="1.0" encoding="UTF-8" standalone="no"?>
<!DOCTYPE svg PUBLIC "-//W3C//DTD SVG 1.1//EN"
 "http://www.w3.org/Graphics/SVG/1.1/DTD/svg11.dtd">
<!-- Generated by graphviz version 2.43.0 (0)
 -->
<!-- Title: evir::MDValue Pages: 1 -->
<svg width="246pt" height="256pt"
 viewBox="0.00 0.00 246.00 256.00" xmlns="http://www.w3.org/2000/svg" xmlns:xlink="http://www.w3.org/1999/xlink">
<g id="graph0" class="graph" transform="scale(1 1) rotate(0) translate(4 252)">
<title>evir::MDValue</title>
<!-- Node1 -->
<g id="node1" class="node">
<title>Node1</title>
<g id="a_node1"><a xlink:title="A Class representing a value used by metadata.">
<polygon fill="#bfbfbf" stroke="black" points="0,-114.5 0,-133.5 85,-133.5 85,-114.5 0,-114.5"/>
<text text-anchor="middle" x="42.5" y="-121.5" font-family="Helvetica,sans-Serif" font-size="10.00">evir::MDValue</text>
</a>
</g>
</g>
<!-- Node2 -->
<g id="node2" class="node">
<title>Node2</title>
<g id="a_node2"><a xlink:href="classevir_1_1MDArrayValue.html" target="_top" xlink:title="A Class representing a value used by metadata.">
<polygon fill="none" stroke="black" points="124,-228.5 124,-247.5 235,-247.5 235,-228.5 124,-228.5"/>
<text text-anchor="middle" x="179.5" y="-235.5" font-family="Helvetica,sans-Serif" font-size="10.00">evir::MDArrayValue</text>
</a>
</g>
</g>
<!-- Node1&#45;&gt;Node2 -->
<g id="edge1" class="edge">
<title>Node1&#45;&gt;Node2</title>
<path fill="none" stroke="midnightblue" d="M53.98,-142.35C67.06,-163.69 91.35,-198.59 121,-219 126.54,-222.81 132.91,-225.91 139.34,-228.41"/>
<polygon fill="midnightblue" stroke="midnightblue" points="56.9,-140.41 48.78,-133.6 50.88,-143.99 56.9,-140.41"/>
</g>
<!-- Node3 -->
<g id="node3" class="node">
<title>Node3</title>
<g id="a_node3"><a xlink:href="classevir_1_1MDHexValue.html" target="_top" xlink:title="A Class representing a value used by metadata.">
<polygon fill="none" stroke="black" points="127.5,-190.5 127.5,-209.5 231.5,-209.5 231.5,-190.5 127.5,-190.5"/>
<text text-anchor="middle" x="179.5" y="-197.5" font-family="Helvetica,sans-Serif" font-size="10.00">evir::MDHexValue</text>
</a>
</g>
</g>
<!-- Node1&#45;&gt;Node3 -->
<g id="edge2" class="edge">
<title>Node1&#45;&gt;Node3</title>
<path fill="none" stroke="midnightblue" d="M62.3,-140.47C77.34,-152.97 99.41,-169.85 121,-181 128.1,-184.67 136.05,-187.83 143.72,-190.47"/>
<polygon fill="midnightblue" stroke="midnightblue" points="64.2,-137.5 54.31,-133.69 59.67,-142.83 64.2,-137.5"/>
</g>
<!-- Node4 -->
<g id="node4" class="node">
<title>Node4</title>
<g id="a_node4"><a xlink:href="classevir_1_1MDIRValue.html" target="_top" xlink:title="A Class representing a value used by metadata.">
<polygon fill="none" stroke="black" points="132,-152.5 132,-171.5 227,-171.5 227,-152.5 132,-152.5"/>
<text text-anchor="middle" x="179.5" y="-159.5" font-family="Helvetica,sans-Serif" font-size="10.00">evir::MDIRValue</text>
</a>
</g>
</g>
<!-- Node1&#45;&gt;Node4 -->
<g id="edge3" class="edge">
<title>Node1&#45;&gt;Node4</title>
<path fill="none" stroke="midnightblue" d="M87.26,-136.32C105.81,-141.54 127.1,-147.53 144.44,-152.41"/>
<polygon fill="midnightblue" stroke="midnightblue" points="88.14,-132.93 77.57,-133.59 86.24,-139.67 88.14,-132.93"/>
</g>
<!-- Node5 -->
<g id="node5" class="node">
<title>Node5</title>
<g id="a_node5"><a xlink:href="classevir_1_1MDMapValue.html" target="_top" xlink:title="A Class representing a value used by metadata.">
<polygon fill="none" stroke="black" points="126.5,-114.5 126.5,-133.5 232.5,-133.5 232.5,-114.5 126.5,-114.5"/>
<text text-anchor="middle" x="179.5" y="-121.5" font-family="Helvetica,sans-Serif" font-size="10.00">evir::MDMapValue</text>
</a>
</g>
</g>
<!-- Node1&#45;&gt;Node5 -->
<g id="edge4" class="edge">
<title>Node1&#45;&gt;Node5</title>
<path fill="none" stroke="midnightblue" d="M95.11,-124C105.33,-124 116.06,-124 126.3,-124"/>
<polygon fill="midnightblue" stroke="midnightblue" points="95.11,-120.5 85.11,-124 95.11,-127.5 95.11,-120.5"/>
</g>
<!-- Node6 -->
<g id="node6" class="node">
<title>Node6</title>
<g id="a_node6"><a xlink:href="classevir_1_1MDOptionValue.html" target="_top" xlink:title="A Class representing a value used by metadata.">
<polygon fill="none" stroke="black" points="121,-76.5 121,-95.5 238,-95.5 238,-76.5 121,-76.5"/>
<text text-anchor="middle" x="179.5" y="-83.5" font-family="Helvetica,sans-Serif" font-size="10.00">evir::MDOptionValue</text>
</a>
</g>
</g>
<!-- Node1&#45;&gt;Node6 -->
<g id="edge5" class="edge">
<title>Node1&#45;&gt;Node6</title>
<path fill="none" stroke="midnightblue" d="M87.26,-111.68C105.81,-106.46 127.1,-100.47 144.44,-95.59"/>
<polygon fill="midnightblue" stroke="midnightblue" points="86.24,-108.33 77.57,-114.41 88.14,-115.07 86.24,-108.33"/>
</g>
<!-- Node7 -->
<g id="node7" class="node">
<title>Node7</title>
<g id="a_node7"><a xlink:href="classevir_1_1MDStringValue.html" target="_top" xlink:title="A Class representing a value used by metadata.">
<polygon fill="none" stroke="black" points="123,-38.5 123,-57.5 236,-57.5 236,-38.5 123,-38.5"/>
<text text-anchor="middle" x="179.5" y="-45.5" font-family="Helvetica,sans-Serif" font-size="10.00">evir::MDStringValue</text>
</a>
</g>
</g>
<!-- Node1&#45;&gt;Node7 -->
<g id="edge6" class="edge">
<title>Node1&#45;&gt;Node7</title>
<path fill="none" stroke="midnightblue" d="M62.3,-107.53C77.34,-95.03 99.41,-78.15 121,-67 128.1,-63.33 136.05,-60.17 143.72,-57.53"/>
<polygon fill="midnightblue" stroke="midnightblue" points="59.67,-105.17 54.31,-114.31 64.2,-110.5 59.67,-105.17"/>
</g>
<!-- Node8 -->
<g id="node8" class="node">
<title>Node8</title>
<g id="a_node8"><a xlink:href="classevir_1_1MDTypeValue.html" target="_top" xlink:title="A Class representing a value used by metadata.">
<polygon fill="none" stroke="black" points="126,-0.5 126,-19.5 233,-19.5 233,-0.5 126,-0.5"/>
<text text-anchor="middle" x="179.5" y="-7.5" font-family="Helvetica,sans-Serif" font-size="10.00">evir::MDTypeValue</text>
</a>
</g>
</g>
<!-- Node1&#45;&gt;Node8 -->
<g id="edge7" class="edge">
<title>Node1&#45;&gt;Node8</title>
<path fill="none" stroke="midnightblue" d="M53.98,-105.65C67.06,-84.31 91.35,-49.41 121,-29 126.54,-25.19 132.91,-22.09 139.34,-19.59"/>
<polygon fill="midnightblue" stroke="midnightblue" points="50.88,-104.01 48.78,-114.4 56.9,-107.59 50.88,-104.01"/>
</g>
</g>
</svg>
