<?xml version="1.0" encoding="UTF-8" standalone="no"?>
<!DOCTYPE svg PUBLIC "-//W3C//DTD SVG 1.1//EN"
 "http://www.w3.org/Graphics/SVG/1.1/DTD/svg11.dtd">
<!-- Generated by graphviz version 2.43.0 (0)
 -->
<!-- Title: evir::MapConst Pages: 1 -->
<svg width="260pt" height="163pt"
 viewBox="0.00 0.00 259.50 163.00" xmlns="http://www.w3.org/2000/svg" xmlns:xlink="http://www.w3.org/1999/xlink">
<g id="graph0" class="graph" transform="scale(1 1) rotate(0) translate(4 159)">
<title>evir::MapConst</title>
<!-- Node1 -->
<g id="node1" class="node">
<title>Node1</title>
<g id="a_node1"><a xlink:title=" ">
<polygon fill="#bfbfbf" stroke="black" points="64.5,-0.5 64.5,-19.5 154.5,-19.5 154.5,-0.5 64.5,-0.5"/>
<text text-anchor="middle" x="109.5" y="-7.5" font-family="Helvetica,sans-Serif" font-size="10.00">evir::MapConst</text>
</a>
</g>
</g>
<!-- Node2 -->
<g id="node2" class="node">
<title>Node2</title>
<g id="a_node2"><a xlink:href="classevir_1_1Constant.html" target="_top" xlink:title=" ">
<polygon fill="none" stroke="#bfbfbf" points="0,-73 0,-92 85,-92 85,-73 0,-73"/>
<text text-anchor="middle" x="42.5" y="-80" font-family="Helvetica,sans-Serif" font-size="10.00">evir::Constant</text>
</a>
</g>
</g>
<!-- Node2&#45;&gt;Node1 -->
<g id="edge1" class="edge">
<title>Node2&#45;&gt;Node1</title>
<path fill="none" stroke="midnightblue" d="M57.9,-65.3C71.37,-51.12 90.43,-31.06 101.22,-19.72"/>
<polygon fill="midnightblue" stroke="midnightblue" points="55.07,-63.2 50.72,-72.86 60.14,-68.02 55.07,-63.2"/>
</g>
<!-- Node3 -->
<g id="node3" class="node">
<title>Node3</title>
<g id="a_node3"><a xlink:href="classevir_1_1Value.html" target="_top" xlink:title=" ">
<polygon fill="none" stroke="#bfbfbf" points="8.5,-135.5 8.5,-154.5 76.5,-154.5 76.5,-135.5 8.5,-135.5"/>
<text text-anchor="middle" x="42.5" y="-142.5" font-family="Helvetica,sans-Serif" font-size="10.00">evir::Value</text>
</a>
</g>
</g>
<!-- Node3&#45;&gt;Node2 -->
<g id="edge2" class="edge">
<title>Node3&#45;&gt;Node2</title>
<path fill="none" stroke="midnightblue" d="M42.5,-125C42.5,-114 42.5,-100.68 42.5,-92.15"/>
<polygon fill="midnightblue" stroke="midnightblue" points="39,-125.33 42.5,-135.33 46,-125.33 39,-125.33"/>
</g>
<!-- Node4 -->
<g id="node4" class="node">
<title>Node4</title>
<g id="a_node4"><a xlink:title=" ">
<polygon fill="none" stroke="#bfbfbf" points="103.5,-67.5 103.5,-97.5 251.5,-97.5 251.5,-67.5 103.5,-67.5"/>
<text text-anchor="start" x="111.5" y="-85.5" font-family="Helvetica,sans-Serif" font-size="10.00">Map&lt; evir::Value *COMMA</text>
<text text-anchor="middle" x="177.5" y="-74.5" font-family="Helvetica,sans-Serif" font-size="10.00"> evir::Value * &gt;</text>
</a>
</g>
</g>
<!-- Node4&#45;&gt;Node1 -->
<g id="edge3" class="edge">
<title>Node4&#45;&gt;Node1</title>
<path fill="none" stroke="#9a32cd" stroke-dasharray="5,2" d="M156.53,-59.76C143.59,-46.34 127.68,-29.85 118.08,-19.89"/>
<polygon fill="#9a32cd" stroke="#9a32cd" points="154.28,-62.47 163.74,-67.23 159.32,-57.61 154.28,-62.47"/>
<text text-anchor="middle" x="159.5" y="-41" font-family="Helvetica,sans-Serif" font-size="10.00"> pairs</text>
</g>
</g>
</svg>
