<?xml version="1.0" encoding="UTF-8" standalone="no"?>
<!DOCTYPE svg PUBLIC "-//W3C//DTD SVG 1.1//EN"
 "http://www.w3.org/Graphics/SVG/1.1/DTD/svg11.dtd">
<!-- Generated by graphviz version 2.43.0 (0)
 -->
<!-- Title: evir::Value Pages: 1 -->
<svg width="339pt" height="256pt"
 viewBox="0.00 0.00 339.00 256.00" xmlns="http://www.w3.org/2000/svg" xmlns:xlink="http://www.w3.org/1999/xlink">
<g id="graph0" class="graph" transform="scale(1 1) rotate(0) translate(4 252)">
<title>evir::Value</title>
<!-- Node1 -->
<g id="node1" class="node">
<title>Node1</title>
<g id="a_node1"><a xlink:title=" ">
<polygon fill="#bfbfbf" stroke="black" points="109,-114.5 109,-133.5 177,-133.5 177,-114.5 109,-114.5"/>
<text text-anchor="middle" x="143" y="-121.5" font-family="Helvetica,sans-Serif" font-size="10.00">evir::Value</text>
</a>
</g>
</g>
<!-- Node3 -->
<g id="node3" class="node">
<title>Node3</title>
<g id="a_node3"><a xlink:href="classevir_1_1FloatValue.html" target="_top" xlink:title=" ">
<polygon fill="none" stroke="#bfbfbf" points="225.5,-228.5 225.5,-247.5 318.5,-247.5 318.5,-228.5 225.5,-228.5"/>
<text text-anchor="middle" x="272" y="-235.5" font-family="Helvetica,sans-Serif" font-size="10.00">evir::FloatValue</text>
</a>
</g>
</g>
<!-- Node1&#45;&gt;Node3 -->
<g id="edge2" class="edge">
<title>Node1&#45;&gt;Node3</title>
<path fill="none" stroke="midnightblue" d="M152.97,-142.68C164.17,-164.08 185.26,-198.79 213,-219 218.31,-222.87 224.45,-225.98 230.71,-228.47"/>
<polygon fill="midnightblue" stroke="midnightblue" points="156.04,-140.98 148.41,-133.62 149.79,-144.13 156.04,-140.98"/>
</g>
<!-- Node4 -->
<g id="node4" class="node">
<title>Node4</title>
<g id="a_node4"><a xlink:href="classevir_1_1IntegerValue.html" target="_top" xlink:title=" ">
<polygon fill="none" stroke="#bfbfbf" points="220.5,-190.5 220.5,-209.5 323.5,-209.5 323.5,-190.5 220.5,-190.5"/>
<text text-anchor="middle" x="272" y="-197.5" font-family="Helvetica,sans-Serif" font-size="10.00">evir::IntegerValue</text>
</a>
</g>
</g>
<!-- Node1&#45;&gt;Node4 -->
<g id="edge3" class="edge">
<title>Node1&#45;&gt;Node4</title>
<path fill="none" stroke="midnightblue" d="M160.79,-140.96C173.99,-153.5 193.39,-170.2 213,-181 219.78,-184.73 227.4,-187.88 234.85,-190.48"/>
<polygon fill="midnightblue" stroke="midnightblue" points="163.02,-138.25 153.41,-133.78 158.14,-143.27 163.02,-138.25"/>
</g>
<!-- Node5 -->
<g id="node5" class="node">
<title>Node5</title>
<g id="a_node5"><a xlink:href="classevir_1_1ListValue.html" target="_top" xlink:title=" ">
<polygon fill="none" stroke="#bfbfbf" points="229,-152.5 229,-171.5 315,-171.5 315,-152.5 229,-152.5"/>
<text text-anchor="middle" x="272" y="-159.5" font-family="Helvetica,sans-Serif" font-size="10.00">evir::ListValue</text>
</a>
</g>
</g>
<!-- Node1&#45;&gt;Node5 -->
<g id="edge4" class="edge">
<title>Node1&#45;&gt;Node5</title>
<path fill="none" stroke="midnightblue" d="M185.89,-136.54C203.17,-141.7 222.87,-147.6 238.96,-152.41"/>
<polygon fill="midnightblue" stroke="midnightblue" points="186.63,-133.1 176.05,-133.59 184.62,-139.81 186.63,-133.1"/>
</g>
<!-- Node6 -->
<g id="node6" class="node">
<title>Node6</title>
<g id="a_node6"><a xlink:href="classevir_1_1MapValue.html" target="_top" xlink:title=" ">
<polygon fill="none" stroke="#bfbfbf" points="227.5,-114.5 227.5,-133.5 316.5,-133.5 316.5,-114.5 227.5,-114.5"/>
<text text-anchor="middle" x="272" y="-121.5" font-family="Helvetica,sans-Serif" font-size="10.00">evir::MapValue</text>
</a>
</g>
</g>
<!-- Node1&#45;&gt;Node6 -->
<g id="edge5" class="edge">
<title>Node1&#45;&gt;Node6</title>
<path fill="none" stroke="midnightblue" d="M187.07,-124C199.99,-124 214.16,-124 227.13,-124"/>
<polygon fill="midnightblue" stroke="midnightblue" points="187.04,-120.5 177.04,-124 187.04,-127.5 187.04,-120.5"/>
</g>
<!-- Node7 -->
<g id="node7" class="node">
<title>Node7</title>
<g id="a_node7"><a xlink:href="classevir_1_1OptionValue.html" target="_top" xlink:title=" ">
<polygon fill="none" stroke="#bfbfbf" points="221.5,-76.5 221.5,-95.5 322.5,-95.5 322.5,-76.5 221.5,-76.5"/>
<text text-anchor="middle" x="272" y="-83.5" font-family="Helvetica,sans-Serif" font-size="10.00">evir::OptionValue</text>
</a>
</g>
</g>
<!-- Node1&#45;&gt;Node7 -->
<g id="edge6" class="edge">
<title>Node1&#45;&gt;Node7</title>
<path fill="none" stroke="midnightblue" d="M185.89,-111.46C203.17,-106.3 222.87,-100.4 238.96,-95.59"/>
<polygon fill="midnightblue" stroke="midnightblue" points="184.62,-108.19 176.05,-114.41 186.63,-114.9 184.62,-108.19"/>
</g>
<!-- Node8 -->
<g id="node8" class="node">
<title>Node8</title>
<g id="a_node8"><a xlink:href="classevir_1_1ReferenceValue.html" target="_top" xlink:title=" ">
<polygon fill="none" stroke="#bfbfbf" points="213,-38.5 213,-57.5 331,-57.5 331,-38.5 213,-38.5"/>
<text text-anchor="middle" x="272" y="-45.5" font-family="Helvetica,sans-Serif" font-size="10.00">evir::ReferenceValue</text>
</a>
</g>
</g>
<!-- Node1&#45;&gt;Node8 -->
<g id="edge7" class="edge">
<title>Node1&#45;&gt;Node8</title>
<path fill="none" stroke="midnightblue" d="M160.79,-107.04C173.99,-94.5 193.39,-77.8 213,-67 219.78,-63.27 227.4,-60.12 234.85,-57.52"/>
<polygon fill="midnightblue" stroke="midnightblue" points="158.14,-104.73 153.41,-114.22 163.02,-109.75 158.14,-104.73"/>
</g>
<!-- Node9 -->
<g id="node9" class="node">
<title>Node9</title>
<g id="a_node9"><a xlink:href="classevir_1_1StringValue.html" target="_top" xlink:title=" ">
<polygon fill="none" stroke="#bfbfbf" points="223.5,-0.5 223.5,-19.5 320.5,-19.5 320.5,-0.5 223.5,-0.5"/>
<text text-anchor="middle" x="272" y="-7.5" font-family="Helvetica,sans-Serif" font-size="10.00">evir::StringValue</text>
</a>
</g>
</g>
<!-- Node1&#45;&gt;Node9 -->
<g id="edge8" class="edge">
<title>Node1&#45;&gt;Node9</title>
<path fill="none" stroke="midnightblue" d="M152.97,-105.32C164.17,-83.92 185.26,-49.21 213,-29 218.31,-25.13 224.45,-22.02 230.71,-19.53"/>
<polygon fill="midnightblue" stroke="midnightblue" points="149.79,-103.87 148.41,-114.38 156.04,-107.02 149.79,-103.87"/>
</g>
<!-- Node2 -->
<g id="node2" class="node">
<title>Node2</title>
<g id="a_node2"><a xlink:href="classevir_1_1Object.html" target="_top" xlink:title=" ">
<polygon fill="none" stroke="#bfbfbf" points="0,-114.5 0,-133.5 73,-133.5 73,-114.5 0,-114.5"/>
<text text-anchor="middle" x="36.5" y="-121.5" font-family="Helvetica,sans-Serif" font-size="10.00">evir::Object</text>
</a>
</g>
</g>
<!-- Node2&#45;&gt;Node1 -->
<g id="edge1" class="edge">
<title>Node2&#45;&gt;Node1</title>
<path fill="none" stroke="midnightblue" d="M83.18,-124C91.85,-124 100.77,-124 108.95,-124"/>
<polygon fill="midnightblue" stroke="midnightblue" points="83.17,-120.5 73.17,-124 83.17,-127.5 83.17,-120.5"/>
</g>
</g>
</svg>
