<?xml version="1.0" encoding="UTF-8" standalone="no"?>
<!DOCTYPE svg PUBLIC "-//W3C//DTD SVG 1.1//EN"
 "http://www.w3.org/Graphics/SVG/1.1/DTD/svg11.dtd">
<!-- Generated by graphviz version 2.43.0 (0)
 -->
<!-- Title: evir::Function Pages: 1 -->
<svg width="252pt" height="152pt"
 viewBox="0.00 0.00 251.50 152.00" xmlns="http://www.w3.org/2000/svg" xmlns:xlink="http://www.w3.org/1999/xlink">
<g id="graph0" class="graph" transform="scale(1 1) rotate(0) translate(4 148)">
<title>evir::Function</title>
<!-- Node1 -->
<g id="node1" class="node">
<title>Node1</title>
<g id="a_node1"><a xlink:title=" ">
<polygon fill="#bfbfbf" stroke="black" points="54,-0.5 54,-19.5 137,-19.5 137,-0.5 54,-0.5"/>
<text text-anchor="middle" x="95.5" y="-7.5" font-family="Helvetica,sans-Serif" font-size="10.00">evir::Function</text>
</a>
</g>
</g>
<!-- Node2 -->
<g id="node2" class="node">
<title>Node2</title>
<g id="a_node2"><a xlink:href="classevir_1_1User.html" target="_top" xlink:title=" ">
<polygon fill="none" stroke="#bfbfbf" points="63.5,-57.5 63.5,-76.5 127.5,-76.5 127.5,-57.5 63.5,-57.5"/>
<text text-anchor="middle" x="95.5" y="-64.5" font-family="Helvetica,sans-Serif" font-size="10.00">evir::User</text>
</a>
</g>
</g>
<!-- Node2&#45;&gt;Node1 -->
<g id="edge1" class="edge">
<title>Node2&#45;&gt;Node1</title>
<path fill="none" stroke="midnightblue" d="M95.5,-47.12C95.5,-37.82 95.5,-27.06 95.5,-19.71"/>
<polygon fill="midnightblue" stroke="midnightblue" points="92,-47.41 95.5,-57.41 99,-47.41 92,-47.41"/>
</g>
<!-- Node3 -->
<g id="node3" class="node">
<title>Node3</title>
<g id="a_node3"><a xlink:title=" ">
<polygon fill="none" stroke="#bfbfbf" points="0,-124.5 0,-143.5 45,-143.5 45,-124.5 0,-124.5"/>
<text text-anchor="middle" x="22.5" y="-131.5" font-family="Helvetica,sans-Serif" font-size="10.00">String</text>
</a>
</g>
</g>
<!-- Node3&#45;&gt;Node2 -->
<g id="edge2" class="edge">
<title>Node3&#45;&gt;Node2</title>
<path fill="none" stroke="#9a32cd" stroke-dasharray="5,2" d="M37.83,-116.76C44.59,-109.85 52.74,-101.82 60.5,-95 67.88,-88.51 76.63,-81.76 83.53,-76.64"/>
<polygon fill="#9a32cd" stroke="#9a32cd" points="35.06,-114.59 30.65,-124.23 40.11,-119.45 35.06,-114.59"/>
<text text-anchor="middle" x="76" y="-98" font-family="Helvetica,sans-Serif" font-size="10.00"> name</text>
</g>
<!-- Node4 -->
<g id="node4" class="node">
<title>Node4</title>
<g id="a_node4"><a xlink:href="classevir_1_1Type.html" target="_top" xlink:title="The interface for types.">
<polygon fill="none" stroke="black" points="63.5,-124.5 63.5,-143.5 127.5,-143.5 127.5,-124.5 63.5,-124.5"/>
<text text-anchor="middle" x="95.5" y="-131.5" font-family="Helvetica,sans-Serif" font-size="10.00">evir::Type</text>
</a>
</g>
</g>
<!-- Node4&#45;&gt;Node2 -->
<g id="edge3" class="edge">
<title>Node4&#45;&gt;Node2</title>
<path fill="none" stroke="#9a32cd" stroke-dasharray="5,2" d="M95.5,-114.04C95.5,-101.67 95.5,-86.12 95.5,-76.63"/>
<polygon fill="#9a32cd" stroke="#9a32cd" points="92,-114.23 95.5,-124.23 99,-114.23 92,-114.23"/>
<text text-anchor="middle" x="108" y="-98" font-family="Helvetica,sans-Serif" font-size="10.00"> type</text>
</g>
<!-- Node5 -->
<g id="node5" class="node">
<title>Node5</title>
<g id="a_node5"><a xlink:title=" ">
<polygon fill="none" stroke="#bfbfbf" points="145.5,-124.5 145.5,-143.5 243.5,-143.5 243.5,-124.5 145.5,-124.5"/>
<text text-anchor="middle" x="194.5" y="-131.5" font-family="Helvetica,sans-Serif" font-size="10.00">Vector&lt; String &gt;</text>
</a>
</g>
</g>
<!-- Node5&#45;&gt;Node2 -->
<g id="edge4" class="edge">
<title>Node5&#45;&gt;Node2</title>
<path fill="none" stroke="#9a32cd" stroke-dasharray="5,2" d="M172.56,-118.59C152.97,-105.74 124.94,-87.33 108.64,-76.63"/>
<polygon fill="#9a32cd" stroke="#9a32cd" points="170.87,-121.67 181.15,-124.23 174.71,-115.82 170.87,-121.67"/>
<text text-anchor="middle" x="177" y="-98" font-family="Helvetica,sans-Serif" font-size="10.00"> properties</text>
</g>
</g>
</svg>
