<?xml version="1.0" encoding="UTF-8" standalone="no"?>
<!DOCTYPE svg PUBLIC "-//W3C//DTD SVG 1.1//EN"
 "http://www.w3.org/Graphics/SVG/1.1/DTD/svg11.dtd">
<!-- Generated by graphviz version 2.43.0 (0)
 -->
<!-- Title: evir::User Pages: 1 -->
<svg width="252pt" height="95pt"
 viewBox="0.00 0.00 251.50 95.00" xmlns="http://www.w3.org/2000/svg" xmlns:xlink="http://www.w3.org/1999/xlink">
<g id="graph0" class="graph" transform="scale(1 1) rotate(0) translate(4 91)">
<title>evir::User</title>
<!-- Node1 -->
<g id="node1" class="node">
<title>Node1</title>
<g id="a_node1"><a xlink:title=" ">
<polygon fill="#bfbfbf" stroke="black" points="63.5,-0.5 63.5,-19.5 127.5,-19.5 127.5,-0.5 63.5,-0.5"/>
<text text-anchor="middle" x="95.5" y="-7.5" font-family="Helvetica,sans-Serif" font-size="10.00">evir::User</text>
</a>
</g>
</g>
<!-- Node2 -->
<g id="node2" class="node">
<title>Node2</title>
<g id="a_node2"><a xlink:title=" ">
<polygon fill="none" stroke="#bfbfbf" points="0,-67.5 0,-86.5 45,-86.5 45,-67.5 0,-67.5"/>
<text text-anchor="middle" x="22.5" y="-74.5" font-family="Helvetica,sans-Serif" font-size="10.00">String</text>
</a>
</g>
</g>
<!-- Node2&#45;&gt;Node1 -->
<g id="edge1" class="edge">
<title>Node2&#45;&gt;Node1</title>
<path fill="none" stroke="#9a32cd" stroke-dasharray="5,2" d="M37.83,-59.76C44.59,-52.85 52.74,-44.82 60.5,-38 67.88,-31.51 76.63,-24.76 83.53,-19.64"/>
<polygon fill="#9a32cd" stroke="#9a32cd" points="35.06,-57.59 30.65,-67.23 40.11,-62.45 35.06,-57.59"/>
<text text-anchor="middle" x="76" y="-41" font-family="Helvetica,sans-Serif" font-size="10.00"> name</text>
</g>
<!-- Node3 -->
<g id="node3" class="node">
<title>Node3</title>
<g id="a_node3"><a xlink:href="classevir_1_1Type.html" target="_top" xlink:title="The interface for types.">
<polygon fill="none" stroke="black" points="63.5,-67.5 63.5,-86.5 127.5,-86.5 127.5,-67.5 63.5,-67.5"/>
<text text-anchor="middle" x="95.5" y="-74.5" font-family="Helvetica,sans-Serif" font-size="10.00">evir::Type</text>
</a>
</g>
</g>
<!-- Node3&#45;&gt;Node1 -->
<g id="edge2" class="edge">
<title>Node3&#45;&gt;Node1</title>
<path fill="none" stroke="#9a32cd" stroke-dasharray="5,2" d="M95.5,-57.04C95.5,-44.67 95.5,-29.12 95.5,-19.63"/>
<polygon fill="#9a32cd" stroke="#9a32cd" points="92,-57.23 95.5,-67.23 99,-57.23 92,-57.23"/>
<text text-anchor="middle" x="108" y="-41" font-family="Helvetica,sans-Serif" font-size="10.00"> type</text>
</g>
<!-- Node4 -->
<g id="node4" class="node">
<title>Node4</title>
<g id="a_node4"><a xlink:title=" ">
<polygon fill="none" stroke="#bfbfbf" points="145.5,-67.5 145.5,-86.5 243.5,-86.5 243.5,-67.5 145.5,-67.5"/>
<text text-anchor="middle" x="194.5" y="-74.5" font-family="Helvetica,sans-Serif" font-size="10.00">Vector&lt; String &gt;</text>
</a>
</g>
</g>
<!-- Node4&#45;&gt;Node1 -->
<g id="edge3" class="edge">
<title>Node4&#45;&gt;Node1</title>
<path fill="none" stroke="#9a32cd" stroke-dasharray="5,2" d="M172.56,-61.59C152.97,-48.74 124.94,-30.33 108.64,-19.63"/>
<polygon fill="#9a32cd" stroke="#9a32cd" points="170.87,-64.67 181.15,-67.23 174.71,-58.82 170.87,-64.67"/>
<text text-anchor="middle" x="177" y="-41" font-family="Helvetica,sans-Serif" font-size="10.00"> properties</text>
</g>
</g>
</svg>
