<?xml version="1.0" encoding="UTF-8" standalone="no"?>
<!DOCTYPE svg PUBLIC "-//W3C//DTD SVG 1.1//EN"
 "http://www.w3.org/Graphics/SVG/1.1/DTD/svg11.dtd">
<!-- Generated by graphviz version 2.43.0 (0)
 -->
<!-- Title: evir::Function Pages: 1 -->
<svg width="347pt" height="152pt"
 viewBox="0.00 0.00 347.00 152.00" xmlns="http://www.w3.org/2000/svg" xmlns:xlink="http://www.w3.org/1999/xlink">
<g id="graph0" class="graph" transform="scale(1 1) rotate(0) translate(4 148)">
<title>evir::Function</title>
<!-- Node1 -->
<g id="node1" class="node">
<title>Node1</title>
<g id="a_node1"><a xlink:title=" ">
<polygon fill="#bfbfbf" stroke="black" points="103,-0.5 103,-19.5 186,-19.5 186,-0.5 103,-0.5"/>
<text text-anchor="middle" x="144.5" y="-7.5" font-family="Helvetica,sans-Serif" font-size="10.00">evir::Function</text>
</a>
</g>
</g>
<!-- Node2 -->
<g id="node2" class="node">
<title>Node2</title>
<g id="a_node2"><a xlink:href="classevir_1_1User.html" target="_top" xlink:title=" ">
<polygon fill="none" stroke="#bfbfbf" points="112.5,-57.5 112.5,-76.5 176.5,-76.5 176.5,-57.5 112.5,-57.5"/>
<text text-anchor="middle" x="144.5" y="-64.5" font-family="Helvetica,sans-Serif" font-size="10.00">evir::User</text>
</a>
</g>
</g>
<!-- Node2&#45;&gt;Node1 -->
<g id="edge1" class="edge">
<title>Node2&#45;&gt;Node1</title>
<path fill="none" stroke="midnightblue" d="M144.5,-47.12C144.5,-37.82 144.5,-27.06 144.5,-19.71"/>
<polygon fill="midnightblue" stroke="midnightblue" points="141,-47.41 144.5,-57.41 148,-47.41 141,-47.41"/>
</g>
<!-- Node3 -->
<g id="node3" class="node">
<title>Node3</title>
<g id="a_node3"><a xlink:title=" ">
<polygon fill="none" stroke="#bfbfbf" points="0,-124.5 0,-143.5 45,-143.5 45,-124.5 0,-124.5"/>
<text text-anchor="middle" x="22.5" y="-131.5" font-family="Helvetica,sans-Serif" font-size="10.00">String</text>
</a>
</g>
</g>
<!-- Node3&#45;&gt;Node2 -->
<g id="edge2" class="edge">
<title>Node3&#45;&gt;Node2</title>
<path fill="none" stroke="#9a32cd" stroke-dasharray="5,2" d="M43.38,-118.66C54.71,-111.17 69.09,-102.11 82.5,-95 95.46,-88.12 110.55,-81.53 122.6,-76.57"/>
<polygon fill="#9a32cd" stroke="#9a32cd" points="41.39,-115.78 35.03,-124.26 45.29,-121.59 41.39,-115.78"/>
<text text-anchor="middle" x="98" y="-98" font-family="Helvetica,sans-Serif" font-size="10.00"> name</text>
</g>
<!-- Node4 -->
<g id="node4" class="node">
<title>Node4</title>
<g id="a_node4"><a xlink:href="classevir_1_1Type.html" target="_top" xlink:title="The interface for types.">
<polygon fill="none" stroke="black" points="63.5,-124.5 63.5,-143.5 127.5,-143.5 127.5,-124.5 63.5,-124.5"/>
<text text-anchor="middle" x="95.5" y="-131.5" font-family="Helvetica,sans-Serif" font-size="10.00">evir::Type</text>
</a>
</g>
</g>
<!-- Node4&#45;&gt;Node2 -->
<g id="edge3" class="edge">
<title>Node4&#45;&gt;Node2</title>
<path fill="none" stroke="#9a32cd" stroke-dasharray="5,2" d="M108.39,-115.9C117.91,-103.27 130.48,-86.6 138,-76.63"/>
<polygon fill="#9a32cd" stroke="#9a32cd" points="105.33,-114.14 102.11,-124.23 110.92,-118.36 105.33,-114.14"/>
<text text-anchor="middle" x="135" y="-98" font-family="Helvetica,sans-Serif" font-size="10.00"> type</text>
</g>
<!-- Node5 -->
<g id="node5" class="node">
<title>Node5</title>
<g id="a_node5"><a xlink:title=" ">
<polygon fill="none" stroke="#bfbfbf" points="145.5,-124.5 145.5,-143.5 243.5,-143.5 243.5,-124.5 145.5,-124.5"/>
<text text-anchor="middle" x="194.5" y="-131.5" font-family="Helvetica,sans-Serif" font-size="10.00">Vector&lt; String &gt;</text>
</a>
</g>
</g>
<!-- Node5&#45;&gt;Node2 -->
<g id="edge4" class="edge">
<title>Node5&#45;&gt;Node2</title>
<path fill="none" stroke="#9a32cd" stroke-dasharray="5,2" d="M181.63,-116.27C171.88,-103.6 158.89,-86.7 151.14,-76.63"/>
<polygon fill="#9a32cd" stroke="#9a32cd" points="178.89,-118.44 187.76,-124.23 184.43,-114.17 178.89,-118.44"/>
<text text-anchor="middle" x="198" y="-98" font-family="Helvetica,sans-Serif" font-size="10.00"> properties</text>
</g>
<!-- Node6 -->
<g id="node6" class="node">
<title>Node6</title>
<g id="a_node6"><a xlink:href="classevir_1_1Module.html" target="_top" xlink:title="A Class representing a single stand&#45;alone IR module.">
<polygon fill="none" stroke="black" points="262,-124.5 262,-143.5 339,-143.5 339,-124.5 262,-124.5"/>
<text text-anchor="middle" x="300.5" y="-131.5" font-family="Helvetica,sans-Serif" font-size="10.00">evir::Module</text>
</a>
</g>
</g>
<!-- Node6&#45;&gt;Node2 -->
<g id="edge5" class="edge">
<title>Node6&#45;&gt;Node2</title>
<path fill="none" stroke="#9a32cd" stroke-dasharray="5,2" d="M277.13,-119.33C263.28,-111.57 245.22,-102.04 228.5,-95 211.42,-87.81 191.72,-81.39 175.69,-76.61"/>
<polygon fill="#9a32cd" stroke="#9a32cd" points="275.55,-122.46 285.97,-124.37 279.01,-116.38 275.55,-122.46"/>
<text text-anchor="middle" x="268" y="-98" font-family="Helvetica,sans-Serif" font-size="10.00"> parent</text>
</g>
</g>
</svg>
