<?xml version="1.0" encoding="UTF-8" standalone="no"?>
<!DOCTYPE svg PUBLIC "-//W3C//DTD SVG 1.1//EN"
 "http://www.w3.org/Graphics/SVG/1.1/DTD/svg11.dtd">
<!-- Generated by graphviz version 2.40.1 (20161225.0304)
 -->
<!-- Title: evir::Value Pages: 1 -->
<svg width="240pt" height="256pt"
 viewBox="0.00 0.00 240.00 256.00" xmlns="http://www.w3.org/2000/svg" xmlns:xlink="http://www.w3.org/1999/xlink">
<g id="graph0" class="graph" transform="scale(1 1) rotate(0) translate(4 252)">
<title>evir::Value</title>
<!-- Node0 -->
<g id="node1" class="node">
<title>Node0</title>
<polygon fill="#bfbfbf" stroke="#000000" points="0,-114.5 0,-133.5 73,-133.5 73,-114.5 0,-114.5"/>
<text text-anchor="middle" x="36.5" y="-121.5" font-family="Helvetica,sans-Serif" font-size="10.00" fill="#000000">evir::Value</text>
</g>
<!-- Node1 -->
<g id="node2" class="node">
<title>Node1</title>
<g id="a_node2"><a xlink:href="classevir_1_1FloatValue.html" target="_top" xlink:title="evir::FloatValue">
<polygon fill="none" stroke="#000000" points="122,-228.5 122,-247.5 219,-247.5 219,-228.5 122,-228.5"/>
<text text-anchor="middle" x="170.5" y="-235.5" font-family="Helvetica,sans-Serif" font-size="10.00" fill="#000000">evir::FloatValue</text>
</a>
</g>
</g>
<!-- Node0&#45;&gt;Node1 -->
<g id="edge1" class="edge">
<title>Node0&#45;&gt;Node1</title>
<path fill="none" stroke="#191970" d="M46.106,-142.7579C58.0356,-164.2329 80.3587,-199.0126 109,-219 114.4985,-222.8371 120.7979,-225.9193 127.2207,-228.3897"/>
<polygon fill="#191970" stroke="#191970" points="49.0436,-140.8296 41.2363,-133.6675 42.8732,-144.1351 49.0436,-140.8296"/>
</g>
<!-- Node2 -->
<g id="node3" class="node">
<title>Node2</title>
<g id="a_node3"><a xlink:href="classevir_1_1IntegerValue.html" target="_top" xlink:title="evir::IntegerValue">
<polygon fill="none" stroke="#000000" points="116,-190.5 116,-209.5 225,-209.5 225,-190.5 116,-190.5"/>
<text text-anchor="middle" x="170.5" y="-197.5" font-family="Helvetica,sans-Serif" font-size="10.00" fill="#000000">evir::IntegerValue</text>
</a>
</g>
</g>
<!-- Node0&#45;&gt;Node2 -->
<g id="edge2" class="edge">
<title>Node0&#45;&gt;Node2</title>
<path fill="none" stroke="#191970" d="M53.8438,-140.6568C67.7825,-153.2585 88.375,-170.1847 109,-181 116.1258,-184.7366 124.108,-187.8742 131.9013,-190.4543"/>
<polygon fill="#191970" stroke="#191970" points="56.1714,-138.042 46.4559,-133.8158 51.4154,-143.1782 56.1714,-138.042"/>
</g>
<!-- Node3 -->
<g id="node4" class="node">
<title>Node3</title>
<g id="a_node4"><a xlink:href="classevir_1_1ListValue.html" target="_top" xlink:title="evir::ListValue">
<polygon fill="none" stroke="#000000" points="125.5,-152.5 125.5,-171.5 215.5,-171.5 215.5,-152.5 125.5,-152.5"/>
<text text-anchor="middle" x="170.5" y="-159.5" font-family="Helvetica,sans-Serif" font-size="10.00" fill="#000000">evir::ListValue</text>
</a>
</g>
</g>
<!-- Node0&#45;&gt;Node3 -->
<g id="edge3" class="edge">
<title>Node0&#45;&gt;Node3</title>
<path fill="none" stroke="#191970" d="M79.9383,-136.3183C98.3491,-141.5393 119.4798,-147.5316 136.697,-152.4141"/>
<polygon fill="#191970" stroke="#191970" points="80.8894,-132.9501 70.3139,-133.589 78.9796,-139.6845 80.8894,-132.9501"/>
</g>
<!-- Node4 -->
<g id="node5" class="node">
<title>Node4</title>
<g id="a_node5"><a xlink:href="classevir_1_1ObjectValue.html" target="_top" xlink:title="evir::ObjectValue">
<polygon fill="none" stroke="#000000" points="118.5,-114.5 118.5,-133.5 222.5,-133.5 222.5,-114.5 118.5,-114.5"/>
<text text-anchor="middle" x="170.5" y="-121.5" font-family="Helvetica,sans-Serif" font-size="10.00" fill="#000000">evir::ObjectValue</text>
</a>
</g>
</g>
<!-- Node0&#45;&gt;Node4 -->
<g id="edge4" class="edge">
<title>Node0&#45;&gt;Node4</title>
<path fill="none" stroke="#191970" d="M83.2484,-124C94.589,-124 106.784,-124 118.3564,-124"/>
<polygon fill="#191970" stroke="#191970" points="83.1161,-120.5001 73.1161,-124 83.1161,-127.5001 83.1161,-120.5001"/>
</g>
<!-- Node5 -->
<g id="node6" class="node">
<title>Node5</title>
<g id="a_node6"><a xlink:href="classevir_1_1OptionValue.html" target="_top" xlink:title="evir::OptionValue">
<polygon fill="none" stroke="#000000" points="118,-76.5 118,-95.5 223,-95.5 223,-76.5 118,-76.5"/>
<text text-anchor="middle" x="170.5" y="-83.5" font-family="Helvetica,sans-Serif" font-size="10.00" fill="#000000">evir::OptionValue</text>
</a>
</g>
</g>
<!-- Node0&#45;&gt;Node5 -->
<g id="edge5" class="edge">
<title>Node0&#45;&gt;Node5</title>
<path fill="none" stroke="#191970" d="M79.9383,-111.6817C98.3491,-106.4607 119.4798,-100.4684 136.697,-95.5859"/>
<polygon fill="#191970" stroke="#191970" points="78.9796,-108.3155 70.3139,-114.411 80.8894,-115.0499 78.9796,-108.3155"/>
</g>
<!-- Node6 -->
<g id="node7" class="node">
<title>Node6</title>
<g id="a_node7"><a xlink:href="classevir_1_1ReferenceValue.html" target="_top" xlink:title="evir::ReferenceValue">
<polygon fill="none" stroke="#000000" points="109,-38.5 109,-57.5 232,-57.5 232,-38.5 109,-38.5"/>
<text text-anchor="middle" x="170.5" y="-45.5" font-family="Helvetica,sans-Serif" font-size="10.00" fill="#000000">evir::ReferenceValue</text>
</a>
</g>
</g>
<!-- Node0&#45;&gt;Node6 -->
<g id="edge6" class="edge">
<title>Node0&#45;&gt;Node6</title>
<path fill="none" stroke="#191970" d="M53.8438,-107.3432C67.7825,-94.7415 88.375,-77.8153 109,-67 116.1258,-63.2634 124.108,-60.1258 131.9013,-57.5457"/>
<polygon fill="#191970" stroke="#191970" points="51.4154,-104.8218 46.4559,-114.1842 56.1714,-109.958 51.4154,-104.8218"/>
</g>
<!-- Node7 -->
<g id="node8" class="node">
<title>Node7</title>
<g id="a_node8"><a xlink:href="classevir_1_1StringValue.html" target="_top" xlink:title="evir::StringValue">
<polygon fill="none" stroke="#000000" points="119,-.5 119,-19.5 222,-19.5 222,-.5 119,-.5"/>
<text text-anchor="middle" x="170.5" y="-7.5" font-family="Helvetica,sans-Serif" font-size="10.00" fill="#000000">evir::StringValue</text>
</a>
</g>
</g>
<!-- Node0&#45;&gt;Node7 -->
<g id="edge7" class="edge">
<title>Node0&#45;&gt;Node7</title>
<path fill="none" stroke="#191970" d="M46.106,-105.2421C58.0356,-83.7671 80.3587,-48.9874 109,-29 114.4985,-25.1629 120.7979,-22.0807 127.2207,-19.6103"/>
<polygon fill="#191970" stroke="#191970" points="42.8732,-103.8649 41.2363,-114.3325 49.0436,-107.1704 42.8732,-103.8649"/>
</g>
</g>
</svg>
