<?xml version="1.0" encoding="UTF-8" standalone="no"?>
<!DOCTYPE svg PUBLIC "-//W3C//DTD SVG 1.1//EN"
 "http://www.w3.org/Graphics/SVG/1.1/DTD/svg11.dtd">
<!-- Generated by graphviz version 2.40.1 (20161225.0304)
 -->
<!-- Title: Graph Legend Pages: 1 -->
<svg width="550pt" height="159pt"
 viewBox="0.00 0.00 549.50 159.00" xmlns="http://www.w3.org/2000/svg" xmlns:xlink="http://www.w3.org/1999/xlink">
<g id="graph0" class="graph" transform="scale(1 1) rotate(0) translate(4 155)">
<title>Graph Legend</title>
<!-- Node9 -->
<g id="node1" class="node">
<title>Node9</title>
<polygon fill="#bfbfbf" stroke="#000000" points="314,-19 252,-19 252,0 314,0 314,-19"/>
<text text-anchor="middle" x="283" y="-7" font-family="Helvetica,sans-Serif" font-size="10.00" fill="#000000">Inherited</text>
</g>
<!-- Node10 -->
<g id="node2" class="node">
<title>Node10</title>
<g id="a_node2"><a xlink:href="$classPublicBase.html" xlink:title="PublicBase">
<polygon fill="none" stroke="#000000" points="70,-85 0,-85 0,-66 70,-66 70,-85"/>
<text text-anchor="middle" x="35" y="-73" font-family="Helvetica,sans-Serif" font-size="10.00" fill="#000000">PublicBase</text>
</a>
</g>
</g>
<!-- Node10&#45;&gt;Node9 -->
<g id="edge1" class="edge">
<title>Node10&#45;&gt;Node9</title>
<path fill="none" stroke="#191970" d="M79.8346,-63.5682C129.4955,-50.352 208.2707,-29.3876 251.6976,-17.8305"/>
<polygon fill="#191970" stroke="#191970" points="78.7698,-60.2297 70.0063,-66.1838 80.5701,-66.9942 78.7698,-60.2297"/>
</g>
<!-- Node11 -->
<g id="node3" class="node">
<title>Node11</title>
<g id="a_node3"><a xlink:href="$classTruncated.html" xlink:title="Truncated">
<polygon fill="none" stroke="#ff0000" points="68,-151 2,-151 2,-132 68,-132 68,-151"/>
<text text-anchor="middle" x="35" y="-139" font-family="Helvetica,sans-Serif" font-size="10.00" fill="#000000">Truncated</text>
</a>
</g>
</g>
<!-- Node11&#45;&gt;Node10 -->
<g id="edge2" class="edge">
<title>Node11&#45;&gt;Node10</title>
<path fill="none" stroke="#191970" d="M35,-121.732C35,-109.6966 35,-94.847 35,-85.2785"/>
<polygon fill="#191970" stroke="#191970" points="31.5001,-121.7614 35,-131.7615 38.5001,-121.7615 31.5001,-121.7614"/>
</g>
<!-- Node13 -->
<g id="node4" class="node">
<title>Node13</title>
<g id="a_node4"><a xlink:href="$classProtectedBase.html" xlink:title="ProtectedBase">
<polygon fill="none" stroke="#000000" points="176,-85 88,-85 88,-66 176,-66 176,-85"/>
<text text-anchor="middle" x="132" y="-73" font-family="Helvetica,sans-Serif" font-size="10.00" fill="#000000">ProtectedBase</text>
</a>
</g>
</g>
<!-- Node13&#45;&gt;Node9 -->
<g id="edge3" class="edge">
<title>Node13&#45;&gt;Node9</title>
<path fill="none" stroke="#006400" d="M163.29,-61.8236C192.4807,-49.0647 235.2841,-30.356 261.0168,-19.1085"/>
<polygon fill="#006400" stroke="#006400" points="161.7179,-58.6909 153.9567,-65.903 164.5214,-65.105 161.7179,-58.6909"/>
</g>
<!-- Node14 -->
<g id="node5" class="node">
<title>Node14</title>
<g id="a_node5"><a xlink:href="$classPrivateBase.html" xlink:title="PrivateBase">
<polygon fill="none" stroke="#000000" points="270,-85 194,-85 194,-66 270,-66 270,-85"/>
<text text-anchor="middle" x="232" y="-73" font-family="Helvetica,sans-Serif" font-size="10.00" fill="#000000">PrivateBase</text>
</a>
</g>
</g>
<!-- Node14&#45;&gt;Node9 -->
<g id="edge4" class="edge">
<title>Node14&#45;&gt;Node9</title>
<path fill="none" stroke="#8b1a1a" d="M245.8696,-57.5511C255.3939,-45.2256 267.6728,-29.3352 275.4439,-19.2785"/>
<polygon fill="#8b1a1a" stroke="#8b1a1a" points="242.8702,-55.7085 239.5252,-65.7615 248.4092,-59.9887 242.8702,-55.7085"/>
</g>
<!-- Node15 -->
<g id="node6" class="node">
<title>Node15</title>
<polygon fill="none" stroke="#bfbfbf" points="379.5,-85 288.5,-85 288.5,-66 379.5,-66 379.5,-85"/>
<text text-anchor="middle" x="334" y="-73" font-family="Helvetica,sans-Serif" font-size="10.00" fill="#000000">Undocumented</text>
</g>
<!-- Node15&#45;&gt;Node9 -->
<g id="edge5" class="edge">
<title>Node15&#45;&gt;Node9</title>
<path fill="none" stroke="#191970" d="M320.1304,-57.5511C310.6061,-45.2256 298.3272,-29.3352 290.5561,-19.2785"/>
<polygon fill="#191970" stroke="#191970" points="317.5908,-59.9887 326.4748,-65.7615 323.1298,-55.7085 317.5908,-59.9887"/>
</g>
<!-- Node16 -->
<g id="node7" class="node">
<title>Node16</title>
<g id="a_node7"><a xlink:href="$classTempl.html" xlink:title="Templ&lt; int &gt;">
<polygon fill="none" stroke="#000000" points="482,-85 398,-85 398,-66 482,-66 482,-85"/>
<text text-anchor="middle" x="440" y="-73" font-family="Helvetica,sans-Serif" font-size="10.00" fill="#000000">Templ&lt; int &gt;</text>
</a>
</g>
</g>
<!-- Node16&#45;&gt;Node9 -->
<g id="edge6" class="edge">
<title>Node16&#45;&gt;Node9</title>
<path fill="none" stroke="#191970" d="M407.8336,-61.9778C377.3796,-49.1755 332.4362,-30.2821 305.602,-19.0015"/>
<polygon fill="#191970" stroke="#191970" points="406.5959,-65.2542 417.1709,-65.903 409.3087,-58.8012 406.5959,-65.2542"/>
</g>
<!-- Node17 -->
<g id="node8" class="node">
<title>Node17</title>
<g id="a_node8"><a xlink:href="$classTempl.html" xlink:title="Templ&lt; T &gt;">
<polygon fill="none" stroke="#000000" points="478.5,-151 401.5,-151 401.5,-132 478.5,-132 478.5,-151"/>
<text text-anchor="middle" x="440" y="-139" font-family="Helvetica,sans-Serif" font-size="10.00" fill="#000000">Templ&lt; T &gt;</text>
</a>
</g>
</g>
<!-- Node17&#45;&gt;Node16 -->
<g id="edge7" class="edge">
<title>Node17&#45;&gt;Node16</title>
<path fill="none" stroke="#ffa500" stroke-dasharray="5,2" d="M440,-121.732C440,-109.6966 440,-94.847 440,-85.2785"/>
<polygon fill="#ffa500" stroke="#ffa500" points="436.5001,-121.7614 440,-131.7615 443.5001,-121.7615 436.5001,-121.7614"/>
<text text-anchor="middle" x="458.5" y="-106" font-family="Helvetica,sans-Serif" font-size="10.00" fill="#000000">&lt; int &gt;</text>
</g>
<!-- Node18 -->
<g id="node9" class="node">
<title>Node18</title>
<g id="a_node9"><a xlink:href="$classUsed.html" xlink:title="Used">
<polygon fill="none" stroke="#000000" points="541.5,-85 500.5,-85 500.5,-66 541.5,-66 541.5,-85"/>
<text text-anchor="middle" x="521" y="-73" font-family="Helvetica,sans-Serif" font-size="10.00" fill="#000000">Used</text>
</a>
</g>
</g>
<!-- Node18&#45;&gt;Node9 -->
<g id="edge8" class="edge">
<title>Node18&#45;&gt;Node9</title>
<path fill="none" stroke="#9a32cd" stroke-dasharray="5,2" d="M490.6878,-65.9984C421.9838,-45.9 353.0604,-27.6562 314.1239,-17.524"/>
<polygon fill="#9a32cd" stroke="#9a32cd" points="489.7965,-69.3844 500.3776,-68.846 491.7702,-62.6684 489.7965,-69.3844"/>
<text text-anchor="middle" x="455" y="-40" font-family="Helvetica,sans-Serif" font-size="10.00" fill="#000000">m_usedClass</text>
</g>
</g>
</svg>
