<?xml version="1.0" encoding="UTF-8" standalone="no"?>
<!DOCTYPE svg PUBLIC "-//W3C//DTD SVG 1.1//EN"
 "http://www.w3.org/Graphics/SVG/1.1/DTD/svg11.dtd">
<!-- Generated by graphviz version 2.43.0 (0)
 -->
<!-- Title: Graphical Class Hierarchy Pages: 1 -->
<svg width="365pt" height="142pt"
 viewBox="0.00 0.00 365.00 142.00" xmlns="http://www.w3.org/2000/svg" xmlns:xlink="http://www.w3.org/1999/xlink">
<g id="graph0" class="graph" transform="scale(1 1) rotate(0) translate(4 138)">
<title>Graphical Class Hierarchy</title>
<!-- Node0 -->
<g id="node1" class="node">
<title>Node0</title>
<g id="a_node1"><a xlink:href="classevir_1_1Instruction.html" target="_top" xlink:title=" ">
<polygon fill="none" stroke="black" points="0,-38.5 0,-57.5 93,-57.5 93,-38.5 0,-38.5"/>
<text text-anchor="middle" x="46.5" y="-45.5" font-family="Helvetica,sans-Serif" font-size="10.00">evir::Instruction</text>
</a>
</g>
</g>
<!-- Node1 -->
<g id="node2" class="node">
<title>Node1</title>
<g id="a_node2"><a xlink:href="classevir_1_1BranchInst.html" target="_top" xlink:title=" ">
<polygon fill="none" stroke="black" points="131,-66.5 131,-85.5 224,-85.5 224,-66.5 131,-66.5"/>
<text text-anchor="middle" x="177.5" y="-73.5" font-family="Helvetica,sans-Serif" font-size="10.00">evir::BranchInst</text>
</a>
</g>
</g>
<!-- Node0&#45;&gt;Node1 -->
<g id="edge1" class="edge">
<title>Node0&#45;&gt;Node1</title>
<path fill="none" stroke="midnightblue" d="M101.38,-59.69C111.8,-61.96 122.61,-64.3 132.66,-66.49"/>
<polygon fill="midnightblue" stroke="midnightblue" points="102.05,-56.26 91.53,-57.56 100.56,-63.1 102.05,-56.26"/>
</g>
<!-- Node5 -->
<g id="node6" class="node">
<title>Node5</title>
<g id="a_node6"><a xlink:href="classevir_1_1StorageInst.html" target="_top" xlink:title=" ">
<polygon fill="none" stroke="black" points="129,-19.5 129,-38.5 226,-38.5 226,-19.5 129,-19.5"/>
<text text-anchor="middle" x="177.5" y="-26.5" font-family="Helvetica,sans-Serif" font-size="10.00">evir::StorageInst</text>
</a>
</g>
</g>
<!-- Node0&#45;&gt;Node5 -->
<g id="edge5" class="edge">
<title>Node0&#45;&gt;Node5</title>
<path fill="none" stroke="midnightblue" d="M103.44,-39.76C111.83,-38.52 120.42,-37.26 128.62,-36.05"/>
<polygon fill="midnightblue" stroke="midnightblue" points="102.73,-36.33 93.34,-41.25 103.75,-43.25 102.73,-36.33"/>
</g>
<!-- Node2 -->
<g id="node3" class="node">
<title>Node2</title>
<g id="a_node3"><a xlink:href="classevir_1_1BrInst.html" target="_top" xlink:title=" ">
<polygon fill="none" stroke="black" points="274.5,-114.5 274.5,-133.5 344.5,-133.5 344.5,-114.5 274.5,-114.5"/>
<text text-anchor="middle" x="309.5" y="-121.5" font-family="Helvetica,sans-Serif" font-size="10.00">evir::BrInst</text>
</a>
</g>
</g>
<!-- Node1&#45;&gt;Node2 -->
<g id="edge2" class="edge">
<title>Node1&#45;&gt;Node2</title>
<path fill="none" stroke="midnightblue" d="M214.01,-89.11C235.68,-97.11 262.9,-107.16 282.55,-114.42"/>
<polygon fill="midnightblue" stroke="midnightblue" points="215.09,-85.78 204.49,-85.6 212.66,-92.35 215.09,-85.78"/>
</g>
<!-- Node3 -->
<g id="node4" class="node">
<title>Node3</title>
<g id="a_node4"><a xlink:href="classevir_1_1CondBrInst.html" target="_top" xlink:title=" ">
<polygon fill="none" stroke="black" points="262,-76.5 262,-95.5 357,-95.5 357,-76.5 262,-76.5"/>
<text text-anchor="middle" x="309.5" y="-83.5" font-family="Helvetica,sans-Serif" font-size="10.00">evir::CondBrInst</text>
</a>
</g>
</g>
<!-- Node1&#45;&gt;Node3 -->
<g id="edge3" class="edge">
<title>Node1&#45;&gt;Node3</title>
<path fill="none" stroke="midnightblue" d="M234.47,-80.31C243.57,-81.01 252.91,-81.72 261.76,-82.4"/>
<polygon fill="midnightblue" stroke="midnightblue" points="234.57,-76.8 224.33,-79.53 234.04,-83.78 234.57,-76.8"/>
</g>
<!-- Node4 -->
<g id="node5" class="node">
<title>Node4</title>
<g id="a_node5"><a xlink:href="classevir_1_1RetInst.html" target="_top" xlink:title=" ">
<polygon fill="none" stroke="black" points="271.5,-38.5 271.5,-57.5 347.5,-57.5 347.5,-38.5 271.5,-38.5"/>
<text text-anchor="middle" x="309.5" y="-45.5" font-family="Helvetica,sans-Serif" font-size="10.00">evir::RetInst</text>
</a>
</g>
</g>
<!-- Node1&#45;&gt;Node4 -->
<g id="edge4" class="edge">
<title>Node1&#45;&gt;Node4</title>
<path fill="none" stroke="midnightblue" d="M232.65,-64.34C245.64,-61.54 259.22,-58.61 271.24,-56.02"/>
<polygon fill="midnightblue" stroke="midnightblue" points="231.91,-60.92 222.88,-66.44 233.39,-67.76 231.91,-60.92"/>
</g>
<!-- Node6 -->
<g id="node7" class="node">
<title>Node6</title>
<g id="a_node7"><a xlink:href="classevir_1_1DispInst.html" target="_top" xlink:title=" ">
<polygon fill="none" stroke="black" points="269,-0.5 269,-19.5 350,-19.5 350,-0.5 269,-0.5"/>
<text text-anchor="middle" x="309.5" y="-7.5" font-family="Helvetica,sans-Serif" font-size="10.00">evir::DispInst</text>
</a>
</g>
</g>
<!-- Node5&#45;&gt;Node6 -->
<g id="edge6" class="edge">
<title>Node5&#45;&gt;Node6</title>
<path fill="none" stroke="midnightblue" d="M236.21,-20.57C247.27,-18.95 258.61,-17.29 268.94,-15.78"/>
<polygon fill="midnightblue" stroke="midnightblue" points="235.56,-17.12 226.17,-22.03 236.57,-24.05 235.56,-17.12"/>
</g>
</g>
</svg>
