<?xml version="1.0" encoding="UTF-8" standalone="no"?>
<!DOCTYPE svg PUBLIC "-//W3C//DTD SVG 1.1//EN"
 "http://www.w3.org/Graphics/SVG/1.1/DTD/svg11.dtd">
<!-- Generated by graphviz version 2.43.0 (0)
 -->
<!-- Title: Graphical Class Hierarchy Pages: 1 -->
<svg width="213pt" height="180pt"
 viewBox="0.00 0.00 213.00 180.00" xmlns="http://www.w3.org/2000/svg" xmlns:xlink="http://www.w3.org/1999/xlink">
<g id="graph0" class="graph" transform="scale(1 1) rotate(0) translate(4 176)">
<title>Graphical Class Hierarchy</title>
<!-- Node0 -->
<g id="node1" class="node">
<title>Node0</title>
<g id="a_node1"><a xlink:href="classevir_1_1Type.html" target="_top" xlink:title="The interface for types.">
<polygon fill="none" stroke="black" points="0,-76.5 0,-95.5 64,-95.5 64,-76.5 0,-76.5"/>
<text text-anchor="middle" x="32" y="-83.5" font-family="Helvetica,sans-Serif" font-size="10.00">evir::Type</text>
</a>
</g>
</g>
<!-- Node1 -->
<g id="node2" class="node">
<title>Node1</title>
<g id="a_node2"><a xlink:href="classevir_1_1FloatType.html" target="_top" xlink:title="An abritrary&#45;width float type.">
<polygon fill="none" stroke="black" points="108,-152.5 108,-171.5 197,-171.5 197,-152.5 108,-152.5"/>
<text text-anchor="middle" x="152.5" y="-159.5" font-family="Helvetica,sans-Serif" font-size="10.00">evir::FloatType</text>
</a>
</g>
</g>
<!-- Node0&#45;&gt;Node1 -->
<g id="edge1" class="edge">
<title>Node0&#45;&gt;Node1</title>
<path fill="none" stroke="midnightblue" d="M49.33,-102.78C62.17,-115.23 81,-131.89 100,-143 106.25,-146.66 113.33,-149.82 120.19,-152.45"/>
<polygon fill="midnightblue" stroke="midnightblue" points="51.72,-100.23 42.16,-95.67 46.79,-105.2 51.72,-100.23"/>
</g>
<!-- Node2 -->
<g id="node3" class="node">
<title>Node2</title>
<g id="a_node3"><a xlink:href="classevir_1_1FunctionType.html" target="_top" xlink:title="A function&#39;s type.">
<polygon fill="none" stroke="black" points="100,-114.5 100,-133.5 205,-133.5 205,-114.5 100,-114.5"/>
<text text-anchor="middle" x="152.5" y="-121.5" font-family="Helvetica,sans-Serif" font-size="10.00">evir::FunctionType</text>
</a>
</g>
</g>
<!-- Node0&#45;&gt;Node2 -->
<g id="edge2" class="edge">
<title>Node0&#45;&gt;Node2</title>
<path fill="none" stroke="midnightblue" d="M72.54,-98.68C88.55,-103.81 106.73,-109.64 121.61,-114.41"/>
<polygon fill="midnightblue" stroke="midnightblue" points="73.49,-95.31 62.9,-95.59 71.36,-101.98 73.49,-95.31"/>
</g>
<!-- Node3 -->
<g id="node4" class="node">
<title>Node3</title>
<g id="a_node4"><a xlink:href="classevir_1_1IntegerType.html" target="_top" xlink:title="An abritrary&#45;width integer type.">
<polygon fill="none" stroke="black" points="103.5,-76.5 103.5,-95.5 201.5,-95.5 201.5,-76.5 103.5,-76.5"/>
<text text-anchor="middle" x="152.5" y="-83.5" font-family="Helvetica,sans-Serif" font-size="10.00">evir::IntegerType</text>
</a>
</g>
</g>
<!-- Node0&#45;&gt;Node3 -->
<g id="edge3" class="edge">
<title>Node0&#45;&gt;Node3</title>
<path fill="none" stroke="midnightblue" d="M74.31,-86C83.62,-86 93.58,-86 103.15,-86"/>
<polygon fill="midnightblue" stroke="midnightblue" points="74.13,-82.5 64.13,-86 74.13,-89.5 74.13,-82.5"/>
</g>
<!-- Node4 -->
<g id="node5" class="node">
<title>Node4</title>
<g id="a_node5"><a xlink:href="classevir_1_1PointerType.html" target="_top" xlink:title="A pointer type.">
<polygon fill="none" stroke="black" points="103.5,-38.5 103.5,-57.5 201.5,-57.5 201.5,-38.5 103.5,-38.5"/>
<text text-anchor="middle" x="152.5" y="-45.5" font-family="Helvetica,sans-Serif" font-size="10.00">evir::PointerType</text>
</a>
</g>
</g>
<!-- Node0&#45;&gt;Node4 -->
<g id="edge4" class="edge">
<title>Node0&#45;&gt;Node4</title>
<path fill="none" stroke="midnightblue" d="M72.54,-73.32C88.55,-68.19 106.73,-62.36 121.61,-57.59"/>
<polygon fill="midnightblue" stroke="midnightblue" points="71.36,-70.02 62.9,-76.41 73.49,-76.69 71.36,-70.02"/>
</g>
<!-- Node5 -->
<g id="node6" class="node">
<title>Node5</title>
<g id="a_node6"><a xlink:href="classevir_1_1VoidType.html" target="_top" xlink:title="A void type.">
<polygon fill="none" stroke="black" points="110,-0.5 110,-19.5 195,-19.5 195,-0.5 110,-0.5"/>
<text text-anchor="middle" x="152.5" y="-7.5" font-family="Helvetica,sans-Serif" font-size="10.00">evir::VoidType</text>
</a>
</g>
</g>
<!-- Node0&#45;&gt;Node5 -->
<g id="edge5" class="edge">
<title>Node0&#45;&gt;Node5</title>
<path fill="none" stroke="midnightblue" d="M49.33,-69.22C62.17,-56.77 81,-40.11 100,-29 106.25,-25.34 113.33,-22.18 120.19,-19.55"/>
<polygon fill="midnightblue" stroke="midnightblue" points="46.79,-66.8 42.16,-76.33 51.72,-71.77 46.79,-66.8"/>
</g>
</g>
</svg>
