<?xml version="1.0" encoding="UTF-8" standalone="no"?>
<!DOCTYPE svg PUBLIC "-//W3C//DTD SVG 1.1//EN"
 "http://www.w3.org/Graphics/SVG/1.1/DTD/svg11.dtd">
<!-- Generated by graphviz version 2.43.0 (0)
 -->
<!-- Title: Graphical Class Hierarchy Pages: 1 -->
<svg width="361pt" height="104pt"
 viewBox="0.00 0.00 361.00 104.00" xmlns="http://www.w3.org/2000/svg" xmlns:xlink="http://www.w3.org/1999/xlink">
<g id="graph0" class="graph" transform="scale(1 1) rotate(0) translate(4 100)">
<title>Graphical Class Hierarchy</title>
<!-- Node0 -->
<g id="node1" class="node">
<title>Node0</title>
<g id="a_node1"><a xlink:href="classevir_1_1Instruction.html" target="_top" xlink:title=" ">
<polygon fill="none" stroke="black" points="0,-38.5 0,-57.5 93,-57.5 93,-38.5 0,-38.5"/>
<text text-anchor="middle" x="46.5" y="-45.5" font-family="Helvetica,sans-Serif" font-size="10.00">evir::Instruction</text>
</a>
</g>
</g>
<!-- Node1 -->
<g id="node2" class="node">
<title>Node1</title>
<g id="a_node2"><a xlink:href="classevir_1_1BranchInst.html" target="_top" xlink:title=" ">
<polygon fill="none" stroke="black" points="129,-38.5 129,-57.5 222,-57.5 222,-38.5 129,-38.5"/>
<text text-anchor="middle" x="175.5" y="-45.5" font-family="Helvetica,sans-Serif" font-size="10.00">evir::BranchInst</text>
</a>
</g>
</g>
<!-- Node0&#45;&gt;Node1 -->
<g id="edge1" class="edge">
<title>Node0&#45;&gt;Node1</title>
<path fill="none" stroke="midnightblue" d="M103.5,-48C111.93,-48 120.54,-48 128.72,-48"/>
<polygon fill="midnightblue" stroke="midnightblue" points="103.35,-44.5 93.35,-48 103.35,-51.5 103.35,-44.5"/>
</g>
<!-- Node2 -->
<g id="node3" class="node">
<title>Node2</title>
<g id="a_node3"><a xlink:href="classevir_1_1BrInst.html" target="_top" xlink:title=" ">
<polygon fill="none" stroke="black" points="270.5,-76.5 270.5,-95.5 340.5,-95.5 340.5,-76.5 270.5,-76.5"/>
<text text-anchor="middle" x="305.5" y="-83.5" font-family="Helvetica,sans-Serif" font-size="10.00">evir::BrInst</text>
</a>
</g>
</g>
<!-- Node1&#45;&gt;Node2 -->
<g id="edge2" class="edge">
<title>Node1&#45;&gt;Node2</title>
<path fill="none" stroke="midnightblue" d="M218.72,-60.54C236.14,-65.7 255.99,-71.6 272.21,-76.41"/>
<polygon fill="midnightblue" stroke="midnightblue" points="219.38,-57.08 208.8,-57.59 217.39,-63.79 219.38,-57.08"/>
</g>
<!-- Node3 -->
<g id="node4" class="node">
<title>Node3</title>
<g id="a_node4"><a xlink:href="classevir_1_1CondBrInst.html" target="_top" xlink:title=" ">
<polygon fill="none" stroke="black" points="258,-38.5 258,-57.5 353,-57.5 353,-38.5 258,-38.5"/>
<text text-anchor="middle" x="305.5" y="-45.5" font-family="Helvetica,sans-Serif" font-size="10.00">evir::CondBrInst</text>
</a>
</g>
</g>
<!-- Node1&#45;&gt;Node3 -->
<g id="edge3" class="edge">
<title>Node1&#45;&gt;Node3</title>
<path fill="none" stroke="midnightblue" d="M232.48,-48C240.89,-48 249.48,-48 257.68,-48"/>
<polygon fill="midnightblue" stroke="midnightblue" points="232.35,-44.5 222.35,-48 232.35,-51.5 232.35,-44.5"/>
</g>
<!-- Node4 -->
<g id="node5" class="node">
<title>Node4</title>
<g id="a_node5"><a xlink:href="classevir_1_1RetInst.html" target="_top" xlink:title=" ">
<polygon fill="none" stroke="black" points="267.5,-0.5 267.5,-19.5 343.5,-19.5 343.5,-0.5 267.5,-0.5"/>
<text text-anchor="middle" x="305.5" y="-7.5" font-family="Helvetica,sans-Serif" font-size="10.00">evir::RetInst</text>
</a>
</g>
</g>
<!-- Node1&#45;&gt;Node4 -->
<g id="edge4" class="edge">
<title>Node1&#45;&gt;Node4</title>
<path fill="none" stroke="midnightblue" d="M218.72,-35.46C236.14,-30.3 255.99,-24.4 272.21,-19.59"/>
<polygon fill="midnightblue" stroke="midnightblue" points="217.39,-32.21 208.8,-38.41 219.38,-38.92 217.39,-32.21"/>
</g>
</g>
</svg>
