<?xml version="1.0" encoding="UTF-8" standalone="no"?>
<!DOCTYPE svg PUBLIC "-//W3C//DTD SVG 1.1//EN"
 "http://www.w3.org/Graphics/SVG/1.1/DTD/svg11.dtd">
<!-- Generated by graphviz version 2.43.0 (0)
 -->
<!-- Title: Graphical Class Hierarchy Pages: 1 -->
<svg width="213pt" height="142pt"
 viewBox="0.00 0.00 213.00 142.00" xmlns="http://www.w3.org/2000/svg" xmlns:xlink="http://www.w3.org/1999/xlink">
<g id="graph0" class="graph" transform="scale(1 1) rotate(0) translate(4 138)">
<title>Graphical Class Hierarchy</title>
<!-- Node0 -->
<g id="node1" class="node">
<title>Node0</title>
<g id="a_node1"><a xlink:href="classevir_1_1Type.html" target="_top" xlink:title="The interface for types.">
<polygon fill="none" stroke="black" points="0,-57.5 0,-76.5 64,-76.5 64,-57.5 0,-57.5"/>
<text text-anchor="middle" x="32" y="-64.5" font-family="Helvetica,sans-Serif" font-size="10.00">evir::Type</text>
</a>
</g>
</g>
<!-- Node1 -->
<g id="node2" class="node">
<title>Node1</title>
<g id="a_node2"><a xlink:href="classevir_1_1FloatType.html" target="_top" xlink:title="An abritrary&#45;width float type.">
<polygon fill="none" stroke="black" points="108,-114.5 108,-133.5 197,-133.5 197,-114.5 108,-114.5"/>
<text text-anchor="middle" x="152.5" y="-121.5" font-family="Helvetica,sans-Serif" font-size="10.00">evir::FloatType</text>
</a>
</g>
</g>
<!-- Node0&#45;&gt;Node1 -->
<g id="edge1" class="edge">
<title>Node0&#45;&gt;Node1</title>
<path fill="none" stroke="midnightblue" d="M57.21,-82C69.73,-89.42 85.41,-98.22 100,-105 107.35,-108.41 115.49,-111.65 123.1,-114.46"/>
<polygon fill="midnightblue" stroke="midnightblue" points="58.7,-78.81 48.32,-76.64 55.08,-84.8 58.7,-78.81"/>
</g>
<!-- Node2 -->
<g id="node3" class="node">
<title>Node2</title>
<g id="a_node3"><a xlink:href="classevir_1_1FunctionType.html" target="_top" xlink:title="A function&#39;s type.">
<polygon fill="none" stroke="black" points="100,-76.5 100,-95.5 205,-95.5 205,-76.5 100,-76.5"/>
<text text-anchor="middle" x="152.5" y="-83.5" font-family="Helvetica,sans-Serif" font-size="10.00">evir::FunctionType</text>
</a>
</g>
</g>
<!-- Node0&#45;&gt;Node2 -->
<g id="edge2" class="edge">
<title>Node0&#45;&gt;Node2</title>
<path fill="none" stroke="midnightblue" d="M74.02,-73.58C82.38,-74.92 91.28,-76.34 99.96,-77.74"/>
<polygon fill="midnightblue" stroke="midnightblue" points="74.56,-70.12 64.13,-71.99 73.45,-77.03 74.56,-70.12"/>
</g>
<!-- Node3 -->
<g id="node4" class="node">
<title>Node3</title>
<g id="a_node4"><a xlink:href="classevir_1_1IntegerType.html" target="_top" xlink:title="An abritrary&#45;width integer type.">
<polygon fill="none" stroke="black" points="103.5,-38.5 103.5,-57.5 201.5,-57.5 201.5,-38.5 103.5,-38.5"/>
<text text-anchor="middle" x="152.5" y="-45.5" font-family="Helvetica,sans-Serif" font-size="10.00">evir::IntegerType</text>
</a>
</g>
</g>
<!-- Node0&#45;&gt;Node3 -->
<g id="edge3" class="edge">
<title>Node0&#45;&gt;Node3</title>
<path fill="none" stroke="midnightblue" d="M74.01,-60.42C83.4,-58.92 93.48,-57.3 103.15,-55.75"/>
<polygon fill="midnightblue" stroke="midnightblue" points="73.45,-56.97 64.13,-62.01 74.56,-63.88 73.45,-56.97"/>
</g>
<!-- Node4 -->
<g id="node5" class="node">
<title>Node4</title>
<g id="a_node5"><a xlink:href="classevir_1_1PointerType.html" target="_top" xlink:title="A pointer type.">
<polygon fill="none" stroke="black" points="103.5,-0.5 103.5,-19.5 201.5,-19.5 201.5,-0.5 103.5,-0.5"/>
<text text-anchor="middle" x="152.5" y="-7.5" font-family="Helvetica,sans-Serif" font-size="10.00">evir::PointerType</text>
</a>
</g>
</g>
<!-- Node0&#45;&gt;Node4 -->
<g id="edge4" class="edge">
<title>Node0&#45;&gt;Node4</title>
<path fill="none" stroke="midnightblue" d="M57.21,-52C69.73,-44.58 85.41,-35.78 100,-29 107.35,-25.59 115.49,-22.35 123.1,-19.54"/>
<polygon fill="midnightblue" stroke="midnightblue" points="55.08,-49.2 48.32,-57.36 58.7,-55.19 55.08,-49.2"/>
</g>
</g>
</svg>
