<?xml version="1.0" encoding="UTF-8" standalone="no"?>
<!DOCTYPE svg PUBLIC "-//W3C//DTD SVG 1.1//EN"
 "http://www.w3.org/Graphics/SVG/1.1/DTD/svg11.dtd">
<!-- Generated by graphviz version 2.43.0 (0)
 -->
<!-- Title: Graphical Class Hierarchy Pages: 1 -->
<svg width="343pt" height="142pt"
 viewBox="0.00 0.00 343.00 142.00" xmlns="http://www.w3.org/2000/svg" xmlns:xlink="http://www.w3.org/1999/xlink">
<g id="graph0" class="graph" transform="scale(1 1) rotate(0) translate(4 138)">
<title>Graphical Class Hierarchy</title>
<!-- Node0 -->
<g id="node1" class="node">
<title>Node0</title>
<g id="a_node1"><a xlink:href="classevir_1_1Value.html" target="_top" xlink:title=" ">
<polygon fill="none" stroke="black" points="0,-38.5 0,-57.5 68,-57.5 68,-38.5 0,-38.5"/>
<text text-anchor="middle" x="34" y="-45.5" font-family="Helvetica,sans-Serif" font-size="10.00">evir::Value</text>
</a>
</g>
</g>
<!-- Node1 -->
<g id="node2" class="node">
<title>Node1</title>
<g id="a_node2"><a xlink:href="classevir_1_1Constant.html" target="_top" xlink:title=" ">
<polygon fill="none" stroke="black" points="107,-57.5 107,-76.5 192,-76.5 192,-57.5 107,-57.5"/>
<text text-anchor="middle" x="149.5" y="-64.5" font-family="Helvetica,sans-Serif" font-size="10.00">evir::Constant</text>
</a>
</g>
</g>
<!-- Node0&#45;&gt;Node1 -->
<g id="edge1" class="edge">
<title>Node0&#45;&gt;Node1</title>
<path fill="none" stroke="midnightblue" d="M78.04,-55.21C87.41,-56.77 97.31,-58.43 106.63,-59.99"/>
<polygon fill="midnightblue" stroke="midnightblue" points="78.57,-51.75 68.13,-53.55 77.42,-58.65 78.57,-51.75"/>
</g>
<!-- Node6 -->
<g id="node7" class="node">
<title>Node6</title>
<g id="a_node7"><a xlink:href="classevir_1_1Reference.html" target="_top" xlink:title=" ">
<polygon fill="none" stroke="black" points="104,-19.5 104,-38.5 195,-38.5 195,-19.5 104,-19.5"/>
<text text-anchor="middle" x="149.5" y="-26.5" font-family="Helvetica,sans-Serif" font-size="10.00">evir::Reference</text>
</a>
</g>
</g>
<!-- Node0&#45;&gt;Node6 -->
<g id="edge6" class="edge">
<title>Node0&#45;&gt;Node6</title>
<path fill="none" stroke="midnightblue" d="M78.1,-40.79C86.48,-39.38 95.28,-37.91 103.72,-36.5"/>
<polygon fill="midnightblue" stroke="midnightblue" points="77.42,-37.35 68.13,-42.45 78.57,-44.25 77.42,-37.35"/>
</g>
<!-- Node2 -->
<g id="node3" class="node">
<title>Node2</title>
<g id="a_node3"><a xlink:href="classevir_1_1ArrayConst.html" target="_top" xlink:title=" ">
<polygon fill="none" stroke="black" points="235.5,-114.5 235.5,-133.5 330.5,-133.5 330.5,-114.5 235.5,-114.5"/>
<text text-anchor="middle" x="283" y="-121.5" font-family="Helvetica,sans-Serif" font-size="10.00">evir::ArrayConst</text>
</a>
</g>
</g>
<!-- Node1&#45;&gt;Node2 -->
<g id="edge2" class="edge">
<title>Node1&#45;&gt;Node2</title>
<path fill="none" stroke="midnightblue" d="M178.91,-81.13C194.2,-88.55 213.48,-97.62 231,-105 238.75,-108.27 247.27,-111.56 255.1,-114.46"/>
<polygon fill="midnightblue" stroke="midnightblue" points="180.01,-77.77 169.49,-76.52 176.93,-84.06 180.01,-77.77"/>
</g>
<!-- Node3 -->
<g id="node4" class="node">
<title>Node3</title>
<g id="a_node4"><a xlink:href="classevir_1_1FloatConst.html" target="_top" xlink:title=" ">
<polygon fill="none" stroke="black" points="236,-76.5 236,-95.5 330,-95.5 330,-76.5 236,-76.5"/>
<text text-anchor="middle" x="283" y="-83.5" font-family="Helvetica,sans-Serif" font-size="10.00">evir::FloatConst</text>
</a>
</g>
</g>
<!-- Node1&#45;&gt;Node3 -->
<g id="edge3" class="edge">
<title>Node1&#45;&gt;Node3</title>
<path fill="none" stroke="midnightblue" d="M202.08,-74.45C213.15,-76.05 224.78,-77.73 235.64,-79.3"/>
<polygon fill="midnightblue" stroke="midnightblue" points="202.51,-70.98 192.11,-73.01 201.5,-77.91 202.51,-70.98"/>
</g>
<!-- Node4 -->
<g id="node5" class="node">
<title>Node4</title>
<g id="a_node5"><a xlink:href="classevir_1_1IntegerConst.html" target="_top" xlink:title=" ">
<polygon fill="none" stroke="black" points="231,-38.5 231,-57.5 335,-57.5 335,-38.5 231,-38.5"/>
<text text-anchor="middle" x="283" y="-45.5" font-family="Helvetica,sans-Serif" font-size="10.00">evir::IntegerConst</text>
</a>
</g>
</g>
<!-- Node1&#45;&gt;Node4 -->
<g id="edge4" class="edge">
<title>Node1&#45;&gt;Node4</title>
<path fill="none" stroke="midnightblue" d="M202.18,-59.53C211.65,-58.17 221.52,-56.74 230.97,-55.37"/>
<polygon fill="midnightblue" stroke="midnightblue" points="201.5,-56.09 192.11,-60.99 202.51,-63.02 201.5,-56.09"/>
</g>
<!-- Node5 -->
<g id="node6" class="node">
<title>Node5</title>
<g id="a_node6"><a xlink:href="classevir_1_1MapConst.html" target="_top" xlink:title=" ">
<polygon fill="none" stroke="black" points="238,-0.5 238,-19.5 328,-19.5 328,-0.5 238,-0.5"/>
<text text-anchor="middle" x="283" y="-7.5" font-family="Helvetica,sans-Serif" font-size="10.00">evir::MapConst</text>
</a>
</g>
</g>
<!-- Node1&#45;&gt;Node5 -->
<g id="edge5" class="edge">
<title>Node1&#45;&gt;Node5</title>
<path fill="none" stroke="midnightblue" d="M183.05,-53.47C187.1,-51.68 191.16,-49.83 195,-48 211.33,-40.22 214.49,-36.4 231,-29 238.5,-25.64 246.8,-22.37 254.48,-19.51"/>
<polygon fill="midnightblue" stroke="midnightblue" points="181.54,-50.31 173.76,-57.5 184.32,-56.73 181.54,-50.31"/>
</g>
</g>
</svg>
