<?xml version="1.0" encoding="UTF-8" standalone="no"?>
<!DOCTYPE svg PUBLIC "-//W3C//DTD SVG 1.1//EN"
 "http://www.w3.org/Graphics/SVG/1.1/DTD/svg11.dtd">
<!-- Generated by graphviz version 2.40.1 (20161225.0304)
 -->
<!-- Title: Graphical Class Hierarchy Pages: 1 -->
<svg width="246pt" height="256pt"
 viewBox="0.00 0.00 246.00 256.00" xmlns="http://www.w3.org/2000/svg" xmlns:xlink="http://www.w3.org/1999/xlink">
<g id="graph0" class="graph" transform="scale(1 1) rotate(0) translate(4 252)">
<title>Graphical Class Hierarchy</title>
<!-- Node0 -->
<g id="node1" class="node">
<title>Node0</title>
<g id="a_node1"><a xlink:href="classeviir_1_1Value.html" target="_top" xlink:title="eviir::Value">
<polygon fill="none" stroke="#000000" points="0,-114.5 0,-133.5 76,-133.5 76,-114.5 0,-114.5"/>
<text text-anchor="middle" x="38" y="-121.5" font-family="Helvetica,sans-Serif" font-size="10.00" fill="#000000">eviir::Value</text>
</a>
</g>
</g>
<!-- Node1 -->
<g id="node2" class="node">
<title>Node1</title>
<g id="a_node2"><a xlink:href="classeviir_1_1FloatValue.html" target="_top" xlink:title="eviir::FloatValue">
<polygon fill="none" stroke="#000000" points="125,-228.5 125,-247.5 225,-247.5 225,-228.5 125,-228.5"/>
<text text-anchor="middle" x="175" y="-235.5" font-family="Helvetica,sans-Serif" font-size="10.00" fill="#000000">eviir::FloatValue</text>
</a>
</g>
</g>
<!-- Node0&#45;&gt;Node1 -->
<g id="edge1" class="edge">
<title>Node0&#45;&gt;Node1</title>
<path fill="none" stroke="#191970" d="M47.7118,-142.4976C59.916,-163.9776 82.8414,-199.01 112,-219 117.6535,-222.8758 124.1176,-225.9785 130.7018,-228.4576"/>
<polygon fill="#191970" stroke="#191970" points="50.7547,-140.7672 42.875,-133.6847 44.6181,-144.1352 50.7547,-140.7672"/>
</g>
<!-- Node2 -->
<g id="node3" class="node">
<title>Node2</title>
<g id="a_node3"><a xlink:href="classeviir_1_1IntegerValue.html" target="_top" xlink:title="eviir::IntegerValue">
<polygon fill="none" stroke="#000000" points="119,-190.5 119,-209.5 231,-209.5 231,-190.5 119,-190.5"/>
<text text-anchor="middle" x="175" y="-197.5" font-family="Helvetica,sans-Serif" font-size="10.00" fill="#000000">eviir::IntegerValue</text>
</a>
</g>
</g>
<!-- Node0&#45;&gt;Node2 -->
<g id="edge2" class="edge">
<title>Node0&#45;&gt;Node2</title>
<path fill="none" stroke="#191970" d="M55.7427,-140.6767C69.9915,-153.2891 91.0198,-170.2202 112,-181 119.3161,-184.7591 127.5003,-187.9066 135.4856,-190.4892"/>
<polygon fill="#191970" stroke="#191970" points="57.948,-137.9518 48.1882,-133.8289 53.2467,-143.1382 57.948,-137.9518"/>
</g>
<!-- Node3 -->
<g id="node4" class="node">
<title>Node3</title>
<g id="a_node4"><a xlink:href="classeviir_1_1ListValue.html" target="_top" xlink:title="eviir::ListValue">
<polygon fill="none" stroke="#000000" points="128.5,-152.5 128.5,-171.5 221.5,-171.5 221.5,-152.5 128.5,-152.5"/>
<text text-anchor="middle" x="175" y="-159.5" font-family="Helvetica,sans-Serif" font-size="10.00" fill="#000000">eviir::ListValue</text>
</a>
</g>
</g>
<!-- Node0&#45;&gt;Node3 -->
<g id="edge3" class="edge">
<title>Node0&#45;&gt;Node3</title>
<path fill="none" stroke="#191970" d="M82.4108,-136.3183C101.2337,-141.5393 122.8376,-147.5316 140.4402,-152.4141"/>
<polygon fill="#191970" stroke="#191970" points="83.1426,-132.8892 72.5709,-133.589 81.2716,-139.6346 83.1426,-132.8892"/>
</g>
<!-- Node4 -->
<g id="node5" class="node">
<title>Node4</title>
<g id="a_node5"><a xlink:href="classeviir_1_1ObjectValue.html" target="_top" xlink:title="eviir::ObjectValue">
<polygon fill="none" stroke="#000000" points="121.5,-114.5 121.5,-133.5 228.5,-133.5 228.5,-114.5 121.5,-114.5"/>
<text text-anchor="middle" x="175" y="-121.5" font-family="Helvetica,sans-Serif" font-size="10.00" fill="#000000">eviir::ObjectValue</text>
</a>
</g>
</g>
<!-- Node0&#45;&gt;Node4 -->
<g id="edge4" class="edge">
<title>Node0&#45;&gt;Node4</title>
<path fill="none" stroke="#191970" d="M86.325,-124C97.6841,-124 109.8558,-124 121.4298,-124"/>
<polygon fill="#191970" stroke="#191970" points="86.1622,-120.5001 76.1621,-124 86.1621,-127.5001 86.1622,-120.5001"/>
</g>
<!-- Node5 -->
<g id="node6" class="node">
<title>Node5</title>
<g id="a_node6"><a xlink:href="classeviir_1_1OptionValue.html" target="_top" xlink:title="eviir::OptionValue">
<polygon fill="none" stroke="#000000" points="121,-76.5 121,-95.5 229,-95.5 229,-76.5 121,-76.5"/>
<text text-anchor="middle" x="175" y="-83.5" font-family="Helvetica,sans-Serif" font-size="10.00" fill="#000000">eviir::OptionValue</text>
</a>
</g>
</g>
<!-- Node0&#45;&gt;Node5 -->
<g id="edge5" class="edge">
<title>Node0&#45;&gt;Node5</title>
<path fill="none" stroke="#191970" d="M82.4108,-111.6817C101.2337,-106.4607 122.8376,-100.4684 140.4402,-95.5859"/>
<polygon fill="#191970" stroke="#191970" points="81.2716,-108.3654 72.5709,-114.411 83.1426,-115.1108 81.2716,-108.3654"/>
</g>
<!-- Node6 -->
<g id="node7" class="node">
<title>Node6</title>
<g id="a_node7"><a xlink:href="classeviir_1_1ReferenceValue.html" target="_top" xlink:title="eviir::ReferenceValue">
<polygon fill="none" stroke="#000000" points="112,-38.5 112,-57.5 238,-57.5 238,-38.5 112,-38.5"/>
<text text-anchor="middle" x="175" y="-45.5" font-family="Helvetica,sans-Serif" font-size="10.00" fill="#000000">eviir::ReferenceValue</text>
</a>
</g>
</g>
<!-- Node0&#45;&gt;Node6 -->
<g id="edge6" class="edge">
<title>Node0&#45;&gt;Node6</title>
<path fill="none" stroke="#191970" d="M55.7427,-107.3233C69.9915,-94.7109 91.0198,-77.7798 112,-67 119.3161,-63.2409 127.5003,-60.0934 135.4856,-57.5108"/>
<polygon fill="#191970" stroke="#191970" points="53.2467,-104.8618 48.1882,-114.1711 57.948,-110.0482 53.2467,-104.8618"/>
</g>
<!-- Node7 -->
<g id="node8" class="node">
<title>Node7</title>
<g id="a_node8"><a xlink:href="classeviir_1_1StringValue.html" target="_top" xlink:title="eviir::StringValue">
<polygon fill="none" stroke="#000000" points="122,-.5 122,-19.5 228,-19.5 228,-.5 122,-.5"/>
<text text-anchor="middle" x="175" y="-7.5" font-family="Helvetica,sans-Serif" font-size="10.00" fill="#000000">eviir::StringValue</text>
</a>
</g>
</g>
<!-- Node0&#45;&gt;Node7 -->
<g id="edge7" class="edge">
<title>Node0&#45;&gt;Node7</title>
<path fill="none" stroke="#191970" d="M47.7118,-105.5024C59.916,-84.0224 82.8414,-48.99 112,-29 117.6535,-25.1242 124.1176,-22.0215 130.7018,-19.5424"/>
<polygon fill="#191970" stroke="#191970" points="44.6181,-103.8648 42.875,-114.3153 50.7547,-107.2328 44.6181,-103.8648"/>
</g>
</g>
</svg>
