<?xml version="1.0" encoding="UTF-8" standalone="no"?>
<!DOCTYPE svg PUBLIC "-//W3C//DTD SVG 1.1//EN"
 "http://www.w3.org/Graphics/SVG/1.1/DTD/svg11.dtd">
<!-- Generated by graphviz version 2.43.0 (0)
 -->
<!-- Title: Graphical Class Hierarchy Pages: 1 -->
<svg width="343pt" height="161pt"
 viewBox="0.00 0.00 343.00 161.00" xmlns="http://www.w3.org/2000/svg" xmlns:xlink="http://www.w3.org/1999/xlink">
<g id="graph0" class="graph" transform="scale(1 1) rotate(0) translate(4 157)">
<title>Graphical Class Hierarchy</title>
<!-- Node0 -->
<g id="node1" class="node">
<title>Node0</title>
<g id="a_node1"><a xlink:href="classevir_1_1Value.html" target="_top" xlink:title=" ">
<polygon fill="none" stroke="black" points="0,-38.5 0,-57.5 68,-57.5 68,-38.5 0,-38.5"/>
<text text-anchor="middle" x="34" y="-45.5" font-family="Helvetica,sans-Serif" font-size="10.00">evir::Value</text>
</a>
</g>
</g>
<!-- Node1 -->
<g id="node2" class="node">
<title>Node1</title>
<g id="a_node2"><a xlink:href="classevir_1_1Constant.html" target="_top" xlink:title=" ">
<polygon fill="none" stroke="black" points="107,-76.5 107,-95.5 192,-95.5 192,-76.5 107,-76.5"/>
<text text-anchor="middle" x="149.5" y="-83.5" font-family="Helvetica,sans-Serif" font-size="10.00">evir::Constant</text>
</a>
</g>
</g>
<!-- Node0&#45;&gt;Node1 -->
<g id="edge1" class="edge">
<title>Node0&#45;&gt;Node1</title>
<path fill="none" stroke="midnightblue" d="M73.31,-60.83C88.54,-65.92 105.76,-71.69 119.87,-76.41"/>
<polygon fill="midnightblue" stroke="midnightblue" points="74.23,-57.44 63.64,-57.59 72.01,-64.08 74.23,-57.44"/>
</g>
<!-- Node6 -->
<g id="node7" class="node">
<title>Node6</title>
<g id="a_node7"><a xlink:href="classevir_1_1Operator.html" target="_top" xlink:title=" ">
<polygon fill="none" stroke="black" points="107.5,-38.5 107.5,-57.5 191.5,-57.5 191.5,-38.5 107.5,-38.5"/>
<text text-anchor="middle" x="149.5" y="-45.5" font-family="Helvetica,sans-Serif" font-size="10.00">evir::Operator</text>
</a>
</g>
</g>
<!-- Node0&#45;&gt;Node6 -->
<g id="edge6" class="edge">
<title>Node0&#45;&gt;Node6</title>
<path fill="none" stroke="midnightblue" d="M78.26,-48C87.84,-48 97.97,-48 107.46,-48"/>
<polygon fill="midnightblue" stroke="midnightblue" points="78.13,-44.5 68.13,-48 78.13,-51.5 78.13,-44.5"/>
</g>
<!-- Node7 -->
<g id="node8" class="node">
<title>Node7</title>
<g id="a_node8"><a xlink:href="classevir_1_1Reference.html" target="_top" xlink:title=" ">
<polygon fill="none" stroke="black" points="104,-0.5 104,-19.5 195,-19.5 195,-0.5 104,-0.5"/>
<text text-anchor="middle" x="149.5" y="-7.5" font-family="Helvetica,sans-Serif" font-size="10.00">evir::Reference</text>
</a>
</g>
</g>
<!-- Node0&#45;&gt;Node7 -->
<g id="edge7" class="edge">
<title>Node0&#45;&gt;Node7</title>
<path fill="none" stroke="midnightblue" d="M73.31,-35.17C88.54,-30.08 105.76,-24.31 119.87,-19.59"/>
<polygon fill="midnightblue" stroke="midnightblue" points="72.01,-31.92 63.64,-38.41 74.23,-38.56 72.01,-31.92"/>
</g>
<!-- Node2 -->
<g id="node3" class="node">
<title>Node2</title>
<g id="a_node3"><a xlink:href="classevir_1_1ArrayConst.html" target="_top" xlink:title=" ">
<polygon fill="none" stroke="black" points="235.5,-133.5 235.5,-152.5 330.5,-152.5 330.5,-133.5 235.5,-133.5"/>
<text text-anchor="middle" x="283" y="-140.5" font-family="Helvetica,sans-Serif" font-size="10.00">evir::ArrayConst</text>
</a>
</g>
</g>
<!-- Node1&#45;&gt;Node2 -->
<g id="edge2" class="edge">
<title>Node1&#45;&gt;Node2</title>
<path fill="none" stroke="midnightblue" d="M178.91,-100.13C194.2,-107.55 213.48,-116.62 231,-124 238.75,-127.27 247.27,-130.56 255.1,-133.46"/>
<polygon fill="midnightblue" stroke="midnightblue" points="180.01,-96.77 169.49,-95.52 176.93,-103.06 180.01,-96.77"/>
</g>
<!-- Node3 -->
<g id="node4" class="node">
<title>Node3</title>
<g id="a_node4"><a xlink:href="classevir_1_1FloatConst.html" target="_top" xlink:title=" ">
<polygon fill="none" stroke="black" points="236,-95.5 236,-114.5 330,-114.5 330,-95.5 236,-95.5"/>
<text text-anchor="middle" x="283" y="-102.5" font-family="Helvetica,sans-Serif" font-size="10.00">evir::FloatConst</text>
</a>
</g>
</g>
<!-- Node1&#45;&gt;Node3 -->
<g id="edge3" class="edge">
<title>Node1&#45;&gt;Node3</title>
<path fill="none" stroke="midnightblue" d="M202.08,-93.45C213.15,-95.05 224.78,-96.73 235.64,-98.3"/>
<polygon fill="midnightblue" stroke="midnightblue" points="202.51,-89.98 192.11,-92.01 201.5,-96.91 202.51,-89.98"/>
</g>
<!-- Node4 -->
<g id="node5" class="node">
<title>Node4</title>
<g id="a_node5"><a xlink:href="classevir_1_1IntegerConst.html" target="_top" xlink:title=" ">
<polygon fill="none" stroke="black" points="231,-57.5 231,-76.5 335,-76.5 335,-57.5 231,-57.5"/>
<text text-anchor="middle" x="283" y="-64.5" font-family="Helvetica,sans-Serif" font-size="10.00">evir::IntegerConst</text>
</a>
</g>
</g>
<!-- Node1&#45;&gt;Node4 -->
<g id="edge4" class="edge">
<title>Node1&#45;&gt;Node4</title>
<path fill="none" stroke="midnightblue" d="M202.18,-78.53C211.65,-77.17 221.52,-75.74 230.97,-74.37"/>
<polygon fill="midnightblue" stroke="midnightblue" points="201.5,-75.09 192.11,-79.99 202.51,-82.02 201.5,-75.09"/>
</g>
<!-- Node5 -->
<g id="node6" class="node">
<title>Node5</title>
<g id="a_node6"><a xlink:href="classevir_1_1MapConst.html" target="_top" xlink:title=" ">
<polygon fill="none" stroke="black" points="238,-19.5 238,-38.5 328,-38.5 328,-19.5 238,-19.5"/>
<text text-anchor="middle" x="283" y="-26.5" font-family="Helvetica,sans-Serif" font-size="10.00">evir::MapConst</text>
</a>
</g>
</g>
<!-- Node1&#45;&gt;Node5 -->
<g id="edge5" class="edge">
<title>Node1&#45;&gt;Node5</title>
<path fill="none" stroke="midnightblue" d="M183.05,-72.47C187.1,-70.68 191.16,-68.83 195,-67 211.33,-59.22 214.49,-55.4 231,-48 238.5,-44.64 246.8,-41.37 254.48,-38.51"/>
<polygon fill="midnightblue" stroke="midnightblue" points="181.54,-69.31 173.76,-76.5 184.32,-75.73 181.54,-69.31"/>
</g>
</g>
</svg>
